<svg width="97" height="53" viewBox="0 0 97 53" fill="none" xmlns="http://www.w3.org/2000/svg">
<path d="M39.3669 42.1528C39.3669 42.188 38.7161 41.9241 37.52 41.6603C35.8291 41.2915 34.0863 41.224 32.372 41.4609C29.8248 41.7964 27.4211 42.8338 25.4298 44.4571C22.9914 46.4446 21.27 49.1749 20.528 52.2319V52.3198L20.3814 52.9062L20.1703 52.3785C18.9771 49.4789 16.9328 47.0092 14.307 45.2955C12.1579 43.8938 9.68456 43.068 7.1244 42.8974C5.40399 42.7724 3.67474 42.9309 2.0057 43.3665C0.833036 43.6773 0.199791 43.9528 0.188065 43.9177C0.328049 43.829 0.477522 43.7562 0.633684 43.7007C1.06657 43.5137 1.51116 43.355 1.96466 43.2258C4.05431 42.6114 6.25112 42.4504 8.408 42.7538C10.5649 43.0572 12.6321 43.8178 14.4712 44.9848C17.1754 46.7181 19.28 49.2424 20.4987 52.2143L20.141 52.2436V52.1556C20.9011 49.018 22.6757 46.219 25.1894 44.1932C27.2371 42.5489 29.7055 41.5128 32.3133 41.2029C34.0577 40.9857 35.8273 41.0951 37.5317 41.5254C37.9923 41.6375 38.4448 41.7805 38.8861 41.9534C39.0529 42.0029 39.2141 42.0697 39.3669 42.1528Z" fill="white"/>
<path d="M96.4877 7.99297C96.4877 8.02815 96.1242 7.89329 95.4617 7.75844C94.5354 7.56801 93.583 7.54023 92.6473 7.67635C91.2582 7.86424 89.9488 8.43469 88.8654 9.32395C87.5369 10.413 86.6036 11.9088 86.2093 13.5807V13.6276L86.0627 14.1847L85.8516 13.657C85.2025 12.0783 84.0905 10.7332 82.662 9.79888C81.4954 9.03511 80.1535 8.58109 78.7628 8.47963C77.8224 8.40505 76.8761 8.48226 75.9602 8.7083C75.3093 8.86661 74.9634 9.00733 74.9458 8.97801C75.0189 8.92154 75.0999 8.8761 75.1862 8.84316C75.4242 8.73523 75.669 8.64317 75.9191 8.56758C77.0702 8.21452 78.2836 8.11295 79.4773 8.26975C80.671 8.42655 81.8171 8.83806 82.8379 9.4764C84.3393 10.4376 85.5083 11.8379 86.1858 13.4869L85.834 13.5162V13.4693C86.2529 11.7245 87.2411 10.169 88.6426 9.04837C89.5931 8.29374 90.7064 7.77101 91.8941 7.52166C93.0819 7.2723 94.3114 7.30318 95.4851 7.61185C95.7397 7.67563 95.9888 7.75994 96.2297 7.86398C96.3218 7.89351 96.4089 7.93701 96.4877 7.99297Z" fill="white"/>
<path d="M56.494 0.00124186C56.494 0.00124186 56.1422 0.405815 55.503 1.12114C54.6135 2.14198 53.8094 3.23429 53.0991 4.38703C50.7205 8.19828 49.4721 12.6062 49.499 17.0988C49.502 17.1515 49.502 17.2043 49.499 17.2571H49.1296C48.7559 14.845 47.9621 12.5172 46.7843 10.3794C45.8395 8.63243 44.6554 7.02599 43.2663 5.6066C42.329 4.65047 41.3021 3.78655 40.1997 3.02673C39.4199 2.48144 38.9684 2.21172 38.986 2.18241C39.1075 2.22293 39.2237 2.27806 39.3319 2.34658C39.5489 2.47557 39.8831 2.63388 40.2818 2.93291C41.427 3.66101 42.4904 4.51022 43.4539 5.46588C46.6838 8.64129 48.802 12.7748 49.4931 17.2512L49.1237 17.2805V17.0988C49.09 12.5432 50.3904 8.07743 52.8645 4.25217C53.601 3.09853 54.4494 2.02032 55.3975 1.03319C55.72 0.675528 56.0132 0.446856 56.1949 0.253366C56.3767 0.0598755 56.4822 -0.0104848 56.494 0.00124186Z" fill="white"/>
</svg>
