<svg width="130" height="69" viewBox="0 0 130 69" fill="none" xmlns="http://www.w3.org/2000/svg">
<path d="M22.2664 13.9604L0.733398 13.9947C0.733398 13.9947 2.76292 12.0996 3.6662 12.0996C4.56949 12.0996 7.19358 5.74227 10.5637 6.00811C13.9339 6.27395 15.7262 10.999 15.7262 10.999C15.7262 10.999 19.8167 9.70986 22.2664 13.9604Z" fill="#EBEBEB"/>
<path d="M129.533 17.9604L108 17.9947C108 17.9947 110.03 16.0996 110.933 16.0996C111.836 16.0996 114.46 9.74227 117.83 10.0081C121.201 10.274 122.993 14.999 122.993 14.999C122.993 14.999 127.083 13.7099 129.533 17.9604Z" fill="#EBEBEB"/>
<path d="M100.695 34.2384C100.705 41.4727 98.4116 48.5225 94.1475 54.3666C90.7037 59.1068 86.1012 62.884 80.7803 65.3369C75.4593 67.7898 69.598 68.8363 63.7569 68.3763C57.9159 67.9162 52.2906 65.9651 47.4193 62.7094C42.548 59.4538 38.5935 55.0026 35.9343 49.7817C33.275 44.5608 32 38.7449 32.2311 32.8904C32.4622 27.0358 34.1918 21.3385 37.2543 16.3435C40.3168 11.3485 44.6098 7.22286 49.7227 4.36136C54.8355 1.49986 60.5971 -0.00179384 66.4562 4.74677e-05C67.3955 4.74677e-05 68.3252 0.0375819 69.2452 0.112654C73.943 0.494336 78.5112 1.84287 82.6631 4.07362C86.815 6.30438 90.461 9.36921 93.3724 13.0758C94.1383 14.0487 94.8516 15.0619 95.5093 16.111C98.9077 21.5457 100.705 27.8286 100.695 34.2384V34.2384Z" fill="#FFC727"/>
<g opacity="0.1">
<path d="M73.8491 50.3991C73.417 51.5514 74.1371 51.5985 74.1843 52.0777C74.2314 52.557 74.1843 53.4683 72.7937 54.8589C71.4031 56.2495 69.1012 55.9614 68.6219 56.5376C68.1427 57.1137 67.3282 59.5597 66.176 60.3742C65.0237 61.1886 64.8351 60.7094 63.2036 61.0446C61.5721 61.3798 60.3229 63.4905 59.8463 64.4988C59.3697 65.507 59.9432 67.1831 58.7988 67.2328C57.6543 67.2826 57.1227 64.7869 56.0673 63.4434C55.012 62.0999 54.6768 60.9005 54.3415 59.3188C54.0063 57.737 54.5327 54.4268 54.3415 53.1331C54.1504 51.8394 50.6962 49.5375 49.4496 47.9531C48.203 46.3687 46.4746 43.2078 46.5689 42.1525C46.7154 41.1291 47.2258 40.1928 48.0066 39.5153C48.5828 39.0832 48.3445 38.8423 48.4387 38.4678C48.533 38.0933 49.0149 37.9885 49.1118 37.5093C49.2087 37.0301 48.8237 35.5897 48.3445 35.3514C47.8652 35.1131 47.5274 35.9249 47.2393 35.7809C46.9513 35.6368 46.0897 34.6312 45.7545 34.5343C45.4193 34.4374 45.5135 35.1576 45.0343 34.2463C44.555 33.3349 44.3141 31.0356 43.9318 30.6506C43.5494 30.2657 43.2613 31.321 42.3605 30.6506C41.4596 29.9802 41.0642 28.6839 40.6818 28.4927C40.2995 28.3015 39.7705 28.5399 39.3724 27.7725C38.9744 27.0052 39.7207 25.6146 39.3724 25.7587C39.0241 25.9027 38.2804 27.0052 38.0892 25.9525C37.898 24.8997 39.0477 21.3486 38.8565 19.429C38.6653 17.5094 39.3357 15.5008 40.6897 13.8667C40.6897 13.8667 40.8808 12.8191 41.072 12.1409C41.2632 11.4626 45.3878 8.78354 45.8671 8.01623C46.0687 7.69674 46.1289 7.19392 46.2075 6.65183C52.0797 2.32469 59.1854 -0.00410063 66.4797 0.00790446C67.419 0.00790446 68.3487 0.0454388 69.2688 0.120511C69.3002 0.165031 69.3342 0.206934 69.3657 0.248835C69.7821 0.772597 70.2299 1.11042 71.445 1.55824C72.6601 2.00606 72.9456 2.5822 72.6916 3.06144C72.4375 3.54068 72.0185 3.63758 71.5393 3.669C71.06 3.70043 70.6122 3.44379 70.1016 3.7659C69.5909 4.08802 69.0776 5.81119 68.4072 5.90547C67.7368 5.99975 66.5531 4.37085 66.2964 3.8916C66.0398 3.41236 66.8726 2.3884 66.4797 1.90916C66.0869 1.42992 65.4008 1.52681 64.314 1.42992C63.2272 1.33302 60.7026 1.75203 60.7969 2.16581C60.8912 2.57958 64.5052 2.10295 64.6021 2.93312C64.699 3.76328 61.9492 5.1722 61.4595 5.04388C60.9698 4.91556 60.3386 4.08539 59.6263 3.99635C58.914 3.90731 58.3457 4.4756 57.9057 4.54107C57.4658 4.60654 56.942 4.0592 56.269 4.18753C55.596 4.31585 55.4388 4.89199 55.0853 5.11459C54.7317 5.33719 53.9016 5.31886 53.8021 5.84262C53.7026 6.36638 54.8496 6.64136 55.1455 6.96085C55.4414 7.28035 54.792 8.36715 55.0801 8.59237C55.3681 8.81759 57.1594 7.24892 57.6072 6.86657C58.055 6.48423 58.4374 4.81866 59.3959 4.85271C60.3543 4.88675 60.6765 6.51303 60.9959 6.67278C61.3154 6.83253 62.0199 6.29043 63.0727 6.51303C64.1254 6.73563 64.8639 9.04019 65.0551 9.74203C65.2463 10.4439 65.6941 11.151 65.317 11.4364C64.9399 11.7219 63.2062 11.2452 62.9836 10.7974C62.761 10.3496 64.1333 9.67918 64.0312 9.51943C63.929 9.35968 63.1355 9.13446 62.7217 9.38587C62.308 9.63728 62.1142 10.1584 61.6742 10.2867C61.2343 10.4151 60.0453 9.07161 59.7258 9.45396C59.4063 9.8363 60.0453 11.0541 60.3648 11.3421C60.6843 11.6302 61.8654 11.7873 61.9623 12.1094C62.0592 12.4315 61.1766 13.1308 60.0767 13.0679C58.9768 13.0051 58.0943 12.1723 57.6779 12.5232C57.2615 12.8741 57.4867 13.8038 57.1987 14.1233C56.9106 14.4428 55.3446 14.2176 54.5799 15.0504C53.8152 15.8831 53.4616 17.1271 52.6943 17.8315C51.927 18.536 51.5761 17.6377 50.5521 18.6303C49.5282 19.6228 49.3501 21.8174 49.3291 22.5873C49.3082 23.3572 49.3291 23.9622 49.0673 23.8653C48.8054 23.7684 48.4571 23.098 48.3628 22.6816C48.2685 22.2652 48.5854 21.5633 48.5854 21.3093C48.5854 21.0553 47.1162 19.738 46.252 19.6123C45.3878 19.4866 44.6205 20.1885 43.9841 20.6991C43.3478 21.2098 42.1929 21.1155 41.7765 21.5319C41.3601 21.9483 41.0406 25.6251 41.3601 26.4867C41.6796 27.3483 42.096 27.3509 43.1199 26.9031C44.1439 26.4553 43.5678 25.5937 44.1675 25.7823C44.4404 25.8852 44.6754 26.069 44.8411 26.309C45.0067 26.5491 45.0951 26.834 45.0945 27.1257C45.0945 27.6495 43.8794 28.8515 44.047 29.205C44.2146 29.5586 45.2621 29.1396 45.7728 29.2993C46.2835 29.4591 46.5401 29.7786 46.3804 31.0906C46.2206 32.4026 46.3175 33.424 47.0848 33.8561C47.8521 34.2882 48.2816 33.2328 48.6194 33.3768C48.9573 33.5208 49.4339 34.2882 49.9131 34.2384C50.3924 34.1886 50.1514 33.7592 51.0628 33.4711C51.9741 33.183 51.6389 32.9918 51.8301 32.4236C52.0213 31.8553 52.5974 31.376 53.2207 31.6563C53.844 31.9365 53.4145 32.3738 53.4616 32.8531C53.5088 33.3323 54.6113 33.3768 55.4755 33.6701C56.3397 33.9634 56.8189 33.6701 58.5447 34.2436C60.2705 34.8172 60.3779 36.5456 61.085 36.8336C61.7921 37.1217 64.204 36.6425 65.9298 37.8812C67.6556 39.1199 67.1763 41.4297 68.0406 42.1001C68.9048 42.7705 72.1154 43.6845 73.362 43.9332C74.6085 44.182 74.7997 43.31 75.8079 43.5509C76.8162 43.7918 77.3792 44.0747 77.7249 45.4679C78.0287 46.6961 74.2812 49.2494 73.8491 50.3991Z" fill="black"/>
<path d="M48.0826 25.8791C48.114 26.141 48.9128 26.2641 49.8739 26.8062C50.835 27.3483 51.1833 28.9483 51.6939 28.9169C52.2046 28.8855 52.0475 28.1496 52.2387 27.9584C52.4298 27.7673 52.7493 27.3509 52.2387 26.9345C51.728 26.5181 51.2304 25.6251 50.2955 25.4968C49.3606 25.3684 49.2008 24.973 48.7871 25.0175C48.6808 25.0182 48.576 25.0424 48.4801 25.0882C48.3842 25.1341 48.2997 25.2005 48.2324 25.2828C48.1651 25.3651 48.1168 25.4611 48.0909 25.5642C48.065 25.6673 48.0622 25.7748 48.0826 25.8791V25.8791Z" fill="black"/>
<path d="M53.3568 28.566C53.2154 28.9562 53.3568 29.2364 54.3808 29.4931C55.4048 29.7497 56.3632 29.2312 56.0437 29.0295C55.7243 28.8279 55.2424 28.9169 55.4362 28.566C55.63 28.2151 55.5619 27.7018 54.7317 27.7987C53.9016 27.8956 53.4852 28.2125 53.3568 28.566Z" fill="black"/>
<path d="M56.9445 28.6734C56.5962 28.7232 56.4024 29.3334 56.7533 29.7209C57.1042 30.1085 57.1069 30.0404 57.5206 29.7209C57.9344 29.4014 58.5682 29.2417 58.4163 28.9222C58.2644 28.6027 57.2902 28.6263 56.9445 28.6734Z" fill="black"/>
<path d="M59.7206 29.9802C59.8751 29.5009 60.6791 29.9802 61.03 30.483C61.3809 30.9858 61.2212 31.7295 61.03 32.2743C60.8389 32.819 60.7105 33.4553 60.2627 33.2013C59.8149 32.9473 60.2941 32.1774 60.2313 31.7295C60.1684 31.2817 59.5923 30.373 59.7206 29.9802Z" fill="black"/>
<path d="M73.4982 3.31021C73.3306 3.71089 74.1058 3.85231 74.5457 4.09586C74.9857 4.33941 75.3445 4.50963 75.5932 4.09586C75.842 3.68208 75.4963 3.20022 75.1454 3.10332C74.7945 3.00643 73.6579 2.92525 73.4982 3.31021Z" fill="black"/>
<path d="M79.5397 7.04987C79.8356 7.36151 80.3384 7.31175 80.6919 7.75171C81.0455 8.19167 80.9145 8.96684 81.3624 9.19206C81.8102 9.41727 82.1297 9.19206 82.1611 8.87257C82.1925 8.55307 81.5221 7.75171 81.585 7.59196C81.6478 7.43221 82.512 7.81718 82.7058 8.29642C82.8996 8.77567 82.512 9.44608 82.9677 9.57441C83.4234 9.70273 83.3212 9.12659 83.5124 9.00088C83.7036 8.87518 84.12 8.93542 84.0885 8.55307C84.0571 8.17072 83.5438 7.33794 83.1274 7.04987C82.711 6.7618 82.3942 6.4423 81.6897 6.28256C80.9852 6.12281 80.3148 6.25113 79.9639 6.54444C79.613 6.83774 79.359 6.8587 79.5397 7.04987Z" fill="black"/>
<path d="M93.3723 13.0758C93.3518 13.2048 93.2881 13.323 93.1916 13.411C92.5212 13.8902 91.7198 12.2273 90.7928 11.9104C89.8657 11.5935 89.4519 10.4072 89.2582 10.6612C89.0644 10.9152 89.1298 11.2688 88.8418 11.6852C88.5537 12.1016 88.1399 12.0047 87.9487 12.8034C87.7576 13.6022 88.8418 15.0739 88.5877 15.5532C88.3337 16.0324 88.0116 15.8727 87.5009 15.8412C86.9903 15.8098 87.0845 16.2576 86.4141 16.0638C85.7437 15.87 86.3172 15.0425 85.2618 14.05C84.2065 13.0574 83.8555 12.8689 84.0808 12.4211C84.306 11.9732 83.9839 11.3343 84.4631 11.2688C84.9423 11.2033 85.3273 11.9104 85.6468 12.1016C85.9663 12.2927 86.3827 11.7166 86.4141 11.2059C86.4455 10.6953 85.2933 9.99081 84.8795 9.59275C84.4657 9.19469 84.4317 7.75958 84.5914 7.46365C84.7512 7.16773 85.2304 7.27248 85.3587 6.57064C85.4347 6.15687 84.78 5.4655 84.2274 4.96793C87.7358 7.10228 90.8331 9.84833 93.3723 13.0758V13.0758Z" fill="black"/>
<path d="M98.1463 41.736C98.2406 40.7121 97.7299 40.6492 98.2406 38.7637C98.7512 36.8781 97.6985 34.8617 97.3161 34.4479C96.9338 34.0341 96.101 34.1598 95.428 34.5762C94.7549 34.9926 95.2368 35.3095 94.789 35.4692C94.3412 35.629 93.8933 35.375 93.4796 35.4064C93.0658 35.4378 92.6782 36.4932 91.7852 36.4539C90.8922 36.4146 90.3134 35.1445 89.643 34.2305C88.9726 33.3166 87.5951 32.7457 87.1499 31.6248C86.7047 30.504 87.5637 28.7808 87.3725 27.4688C87.1813 26.1567 86.325 26.4474 86.1574 25.7115C85.9898 24.9756 86.2857 25.3292 86.5083 24.6247C86.7309 23.9203 86.2464 23.5379 86.7021 22.3228C87.1578 21.1077 87.9486 20.4896 87.7496 19.9659C87.5506 19.4421 86.9483 18.5255 86.9168 17.8891C86.8854 17.2528 87.5244 17.279 88.75 16.3833C89.9756 15.4877 90.2846 15.5532 91.2117 15.8727C91.8771 16.1185 92.561 16.3112 93.257 16.4488C93.8017 16.5431 94.5376 17.952 94.7602 17.8865C94.9828 17.8211 95.0221 17.4073 95.1111 16.7997C95.1737 16.5356 95.3132 16.296 95.5118 16.111C99.1189 21.8983 100.917 28.6304 100.676 35.4455C100.434 42.2606 98.165 48.8487 94.1578 54.3666C97.4183 49.3908 98.0599 42.7679 98.1463 41.736Z" fill="black"/>
</g>
<path opacity="0.1" d="M92.982 55.8907C89.3292 60.3666 84.6033 63.8455 79.2442 66.0035C73.8851 68.1615 68.0671 68.9285 62.3318 68.233C56.5966 67.5374 51.1306 65.4021 46.4426 62.0257C41.7547 58.6493 37.9973 54.1416 35.5202 48.9223C33.0431 43.7031 31.9269 37.9419 32.2754 32.1751C32.624 26.4084 34.426 20.8236 37.5137 15.9407C40.6014 11.0578 44.8744 7.03549 49.9349 4.24832C54.9954 1.46115 60.6788 -0.000296473 66.4561 4.58365e-05C67.3962 4.58365e-05 68.3259 0.0393261 69.2477 0.112653C69.5009 0.130112 69.7549 0.153682 70.0098 0.183362C65.1711 0.710637 60.5214 2.35652 56.4285 4.99083C52.3357 7.62514 48.9119 11.1756 46.4279 15.3615C43.944 19.5473 42.468 24.2537 42.1168 29.1083C41.7656 33.963 42.5488 38.8328 44.4044 43.3326C46.26 47.8324 49.1371 51.8387 52.8082 55.0347C56.4792 58.2307 60.8436 60.5287 65.556 61.7469C70.2685 62.9651 75.1997 63.0702 79.9598 62.0538C84.7198 61.0374 89.1781 58.9274 92.982 55.8907V55.8907Z" fill="black"/>
<path opacity="0.3" d="M100.695 34.2384C100.705 41.4727 98.4116 48.5225 94.1475 54.3666C90.9325 58.7794 86.7135 62.3638 81.8391 64.8235C86.082 62.3969 89.7628 59.099 92.6391 55.147C92.6391 55.147 92.6391 55.147 92.6391 55.147C96.2341 50.2035 98.4483 44.392 99.0543 38.3097C99.6603 32.2273 98.6363 26.0933 96.0874 20.5376C93.5384 14.9819 89.5565 10.2049 84.5506 6.69731C79.5447 3.18969 73.6953 1.07786 67.6032 0.578776C66.6788 0.502831 65.7413 0.463552 64.7985 0.463552C62.0114 0.4611 59.2344 0.797018 56.5283 1.46394C59.7474 0.48958 63.0928 -0.00371941 66.4562 2.11132e-05C67.3963 2.11132e-05 68.326 0.0393014 69.2478 0.112628C74.552 0.537411 79.6826 2.20037 84.2274 4.96791C87.7362 7.10611 90.8334 9.85566 93.3723 13.0862C94.1398 14.0583 94.8523 15.0725 95.5067 16.124C98.9058 21.5538 100.704 27.8324 100.695 34.2384V34.2384Z" fill="white"/>
<g opacity="0.5">
<path d="M37.0024 22.1709C36.9548 22.0837 36.8904 22.0068 36.8129 21.9446C36.7354 21.8825 36.6463 21.8363 36.5508 21.8088C36.4554 21.7813 36.3554 21.773 36.2567 21.7843C36.158 21.7957 36.0625 21.8265 35.9758 21.875C35.384 22.1369 35.1221 22.7837 35.0461 23.407C34.9463 23.6729 34.9463 23.966 35.0461 24.2319C35.0879 24.3072 35.1447 24.3731 35.2131 24.4254C35.2814 24.4777 35.3598 24.5154 35.4434 24.536C35.527 24.5567 35.6139 24.5598 35.6987 24.5454C35.7836 24.5309 35.8645 24.4991 35.9365 24.4519C36.3032 24.2319 36.5493 23.7448 36.7222 23.3756C36.895 23.0063 37.1831 22.5533 37.0024 22.1709Z" fill="white"/>
<path d="M38.0342 19.5102C37.9688 19.4078 37.8719 19.3294 37.758 19.2869C37.6442 19.2444 37.5196 19.24 37.4031 19.2745C37.2936 19.3115 37.196 19.3772 37.1204 19.4647C37.0449 19.5522 36.9942 19.6583 36.9736 19.7721C36.971 19.7973 36.971 19.8228 36.9736 19.848C36.9079 19.9282 36.8605 20.0218 36.8347 20.1222C36.809 20.2226 36.8054 20.3275 36.8243 20.4294C36.8491 20.532 36.9021 20.6256 36.9774 20.6997C37.0526 20.7738 37.1471 20.8253 37.2501 20.8484C37.3531 20.8716 37.4605 20.8655 37.5602 20.8308C37.6599 20.796 37.7479 20.7341 37.8142 20.652C38.0578 20.3822 38.2306 19.848 38.0342 19.5102Z" fill="white"/>
<path d="M38.3511 21.3224C38.2807 21.3213 38.2108 21.3344 38.1455 21.3609C38.0803 21.3875 38.021 21.4269 37.9714 21.4769C37.9306 21.5136 37.8987 21.5591 37.8778 21.6098C37.857 21.6606 37.8478 21.7154 37.8509 21.7702C37.8123 21.8331 37.7849 21.9022 37.7697 21.9745C37.7514 22.0519 37.7577 22.1331 37.7877 22.2068C37.8178 22.2806 37.8701 22.343 37.9373 22.3856C37.9884 22.4195 38.0456 22.4431 38.1058 22.4549C38.166 22.4667 38.2278 22.4665 38.2879 22.4543C38.348 22.4421 38.4051 22.4182 38.4559 22.384C38.5068 22.3497 38.5504 22.3058 38.5842 22.2547C38.7004 22.1045 38.7647 21.9207 38.7675 21.7309C38.7635 21.6225 38.7181 21.5197 38.6407 21.4437C38.5632 21.3677 38.4596 21.3243 38.3511 21.3224V21.3224Z" fill="white"/>
<path d="M39.6264 17.4492C39.5138 17.5356 39.3645 17.6115 39.3121 17.7451C39.2863 17.8021 39.2712 17.8633 39.2676 17.9258C39.2166 18.0221 39.188 18.1286 39.1838 18.2374C39.1845 18.2914 39.1974 18.3445 39.2216 18.3928C39.2458 18.4411 39.2807 18.4832 39.3236 18.516C39.3665 18.5488 39.4163 18.5714 39.4692 18.5821C39.5221 18.5928 39.5767 18.5914 39.629 18.5779C39.7978 18.524 39.9445 18.4167 40.047 18.2722C40.1495 18.1276 40.2023 17.9537 40.1973 17.7765C40.1842 17.5173 39.8673 17.2711 39.6264 17.4492Z" fill="white"/>
<path d="M47.0063 9.26016C46.8447 9.25438 46.6836 9.28107 46.5324 9.33864C46.3813 9.39622 46.2432 9.48351 46.1264 9.59536C46.0595 9.65233 45.9981 9.71546 45.9431 9.78392C45.8824 9.82804 45.8263 9.87804 45.7755 9.93319C45.566 10.1689 45.4638 10.5748 45.7153 10.8236C45.9667 11.0724 46.349 10.8681 46.6056 10.6926C46.8964 10.5186 47.1373 10.2723 47.3049 9.97771C47.4594 9.67393 47.3861 9.31777 47.0063 9.26016Z" fill="white"/>
<path d="M50.2587 7.41386C49.7725 7.45675 49.3059 7.62553 48.9048 7.90358L48.7084 8.04762H48.69C48.4282 8.23355 47.983 8.54519 48.0406 8.93016C48.0593 9.00296 48.0928 9.07112 48.1392 9.13032C48.1855 9.18953 48.2435 9.23851 48.3097 9.27417C48.3759 9.30984 48.4487 9.33143 48.5236 9.33757C48.5986 9.34372 48.6739 9.33429 48.745 9.30989C49.2739 9.17045 49.7819 8.96175 50.2561 8.68922C50.5546 8.52162 50.9344 8.24403 50.9265 7.8643C50.9187 7.48457 50.5834 7.38506 50.2587 7.41386Z" fill="white"/>
<path d="M48.7058 9.93842C48.5829 9.90136 48.4522 9.89835 48.3277 9.92971C48.2031 9.96107 48.0895 10.0256 47.9987 10.1165C47.9403 10.1467 47.8888 10.189 47.8478 10.2404C47.8067 10.2918 47.777 10.3513 47.7604 10.415C47.7436 10.5093 47.7607 10.6065 47.8086 10.6894C47.8565 10.7723 47.9322 10.8356 48.0223 10.8681C48.1098 10.8982 48.2033 10.9064 48.2947 10.8917C48.386 10.8771 48.4724 10.8402 48.5461 10.7843C48.6901 10.69 48.8917 10.58 48.9415 10.4046C48.9662 10.3115 48.9558 10.2126 48.9124 10.1266C48.8689 10.0407 48.7954 9.97372 48.7058 9.93842V9.93842Z" fill="white"/>
<path d="M45.5816 11.9732C45.4647 11.9192 45.3347 11.9001 45.2072 11.9182C45.1199 11.9191 45.0342 11.9417 44.9579 11.9841C44.8817 12.0265 44.8172 12.0873 44.7703 12.1609C44.7235 12.2345 44.6958 12.3187 44.6898 12.4057C44.6837 12.4928 44.6995 12.58 44.7358 12.6594C44.7864 12.7524 44.867 12.8256 44.9645 12.8669C45.0619 12.9083 45.1706 12.9154 45.2726 12.8872C45.4666 12.8103 45.6239 12.6623 45.7126 12.4734C45.7613 12.3897 45.7748 12.29 45.7503 12.1963C45.7258 12.1026 45.6651 12.0224 45.5816 11.9732V11.9732Z" fill="white"/>
<path d="M45.7702 58.321C45.6626 58.2581 45.5346 58.2398 45.4137 58.2702C45.2928 58.3006 45.1885 58.3771 45.1234 58.4834C45.0712 58.5826 45.0545 58.6966 45.0759 58.8066C45.0974 58.9165 45.1557 59.0159 45.2412 59.0883C45.2697 59.133 45.3022 59.1751 45.3381 59.214C45.4552 59.3593 45.6243 59.4532 45.8095 59.4759C45.9176 59.4831 46.025 59.4537 46.1143 59.3924C46.2036 59.3311 46.2697 59.2415 46.3018 59.1381C46.4092 58.761 46.0766 58.4807 45.7702 58.321Z" fill="white"/>
<path d="M48.3025 58.8081C47.9882 58.465 47.2733 58.1088 46.9538 58.6195V58.6378C46.9357 58.6607 46.9199 58.6852 46.9067 58.7112C46.884 58.7685 46.875 58.8304 46.8805 58.8919C46.8773 59.0897 46.9473 59.2818 47.0769 59.4313C47.1757 59.5562 47.3071 59.6514 47.4566 59.7063C47.5335 59.7731 47.6224 59.8247 47.7185 59.8582C47.8491 59.909 47.9938 59.9104 48.1254 59.8622C48.257 59.814 48.3665 59.7195 48.4334 59.5963C48.4983 59.4681 48.5205 59.3225 48.497 59.1808C48.4734 59.039 48.4053 58.9085 48.3025 58.8081V58.8081Z" fill="white"/>
<path d="M47.7499 60.5391C47.7483 60.4672 47.7281 60.3969 47.6913 60.3351C47.6545 60.2733 47.6022 60.2221 47.5397 60.1865C47.4772 60.1509 47.4066 60.1321 47.3346 60.132C47.2627 60.1318 47.1919 60.1503 47.1293 60.1856C47.0918 60.2072 47.0589 60.2361 47.0327 60.2705C47.0064 60.305 46.9873 60.3443 46.9763 60.3862C46.9653 60.4281 46.9628 60.4717 46.9688 60.5146C46.9749 60.5575 46.9893 60.5987 47.0114 60.636C47.0507 60.6927 47.0945 60.7461 47.1424 60.7957C47.1951 60.8392 47.2589 60.8673 47.3266 60.877C47.3943 60.8866 47.4633 60.8774 47.5261 60.8503C47.5889 60.8232 47.643 60.7794 47.6825 60.7235C47.722 60.6677 47.7453 60.6021 47.7499 60.5339V60.5391Z" fill="white"/>
<path d="M49.1484 60.8377C49.1364 60.7927 49.1125 60.7518 49.0794 60.7191C49.0462 60.6864 49.005 60.6632 48.9599 60.6517H48.9442H48.9651C48.9168 60.6314 48.8636 60.6261 48.8122 60.6363C48.7609 60.6466 48.7138 60.672 48.677 60.7093V60.7093C48.6397 60.749 48.6146 60.7985 48.6048 60.852C48.5949 60.9055 48.6007 60.9607 48.6214 61.0111C48.6421 61.0614 48.6769 61.1046 48.7217 61.1357C48.7664 61.1667 48.8191 61.1841 48.8735 61.186C48.9161 61.1859 48.9583 61.1762 48.9967 61.1576C49.0351 61.139 49.0688 61.1119 49.0953 61.0784C49.1217 61.0449 49.1403 61.0058 49.1495 60.9641C49.1587 60.9224 49.1583 60.8792 49.1484 60.8377V60.8377Z" fill="white"/>
<path d="M97.6645 28.9012C97.6121 28.1601 97.4864 26.9607 96.7793 26.5443C96.7073 26.5082 96.6263 26.494 96.5463 26.5033C96.4663 26.5126 96.3907 26.545 96.3289 26.5967C95.7816 26.9162 95.9675 27.8904 96.0173 28.3487C96.0801 28.9562 96.0513 30.0168 96.8291 30.1818C97.6069 30.3468 97.7012 29.4302 97.6645 28.9012Z" fill="white"/>
<path d="M96.6902 24.8499C96.6919 24.7427 96.6717 24.6363 96.6307 24.5372C96.5897 24.4381 96.5289 24.3485 96.4519 24.2738C96.3645 24.1993 96.2524 24.1602 96.1376 24.1641C96.0227 24.1679 95.9135 24.2145 95.8313 24.2947C95.5327 24.5854 95.6061 25.138 95.8313 25.4523C95.8605 25.4996 95.8993 25.5404 95.9452 25.5719C95.9911 25.6035 96.043 25.6251 96.0977 25.6354C96.1524 25.6458 96.2087 25.6446 96.2629 25.632C96.3171 25.6194 96.3681 25.5957 96.4127 25.5622C96.4369 25.544 96.4589 25.5229 96.4781 25.4994C96.5041 25.4813 96.5278 25.4602 96.5488 25.4365C96.6706 25.2669 96.7213 25.0564 96.6902 24.8499V24.8499Z" fill="white"/>
<path d="M97.3188 30.9308C96.9443 30.8418 96.7296 31.101 96.6432 31.4336C96.5301 31.8418 96.5383 32.274 96.6667 32.6776C96.7662 32.963 96.9469 33.2563 97.29 33.2485C97.4425 33.2336 97.5851 33.1667 97.6939 33.0588C97.8027 32.951 97.8709 32.8089 97.8871 32.6566C97.9919 32.1381 97.9866 31.0906 97.3188 30.9308Z" fill="white"/>
<path d="M96.1377 30.3652C96.0901 30.3209 96.0331 30.288 95.971 30.2689C95.9088 30.2499 95.8432 30.2452 95.779 30.2552C95.7527 30.2497 95.7255 30.2499 95.6993 30.2558C95.6731 30.2617 95.6485 30.2731 95.6271 30.2892C95.085 30.4254 95.195 31.4363 95.6951 31.5986C96.3734 31.8265 96.5279 30.7213 96.1377 30.3652Z" fill="white"/>
<path d="M95.7031 46.7589C95.394 46.8296 95.2343 47.1308 95.1112 47.3953C95.0496 47.5216 94.9946 47.6509 94.9462 47.7829C94.8074 48.0683 94.7498 48.3643 94.9462 48.5947C95.0402 48.7008 95.1659 48.7736 95.3047 48.8024C95.4434 48.8312 95.5878 48.8144 95.7162 48.7545C95.8489 48.6797 95.9656 48.5794 96.0595 48.4594C96.1535 48.3394 96.2228 48.2021 96.2635 48.0552C96.418 47.6127 96.452 46.5887 95.7031 46.7589Z" fill="white"/>
<path d="M94.6399 49.3699C94.5097 49.3768 94.3843 49.4214 94.2788 49.498C94.1733 49.5747 94.0922 49.6803 94.0454 49.802C94.0114 49.8648 93.98 49.9277 93.9511 49.9958C93.8969 50.0649 93.8579 50.1448 93.8367 50.2301C93.8154 50.3154 93.8125 50.4042 93.8281 50.4907C93.8305 50.5554 93.849 50.6185 93.8819 50.6743C93.9149 50.7301 93.9611 50.7768 94.0166 50.8102C94.1201 50.898 94.2528 50.9438 94.3885 50.9385C94.509 50.9247 94.6236 50.8787 94.7203 50.8055C94.8171 50.7322 94.8924 50.6344 94.9384 50.5221C95.0417 50.3382 95.1059 50.1349 95.127 49.9251C95.1356 49.7869 95.0892 49.651 94.998 49.547C94.9067 49.443 94.778 49.3793 94.6399 49.3699V49.3699Z" fill="white"/>
<path d="M93.7809 48.0369C93.6088 48.2109 93.4976 48.436 93.464 48.6785C93.433 48.7682 93.4347 48.866 93.4687 48.9546C93.5027 49.0432 93.5669 49.117 93.6499 49.163C94.1737 49.4249 94.4356 48.6968 94.4356 48.3119C94.4313 48.238 94.4063 48.1669 94.3636 48.1065C94.3209 48.0461 94.2621 47.9989 94.1939 47.9703C94.1258 47.9417 94.0509 47.9327 93.9779 47.9445C93.9049 47.9563 93.8366 47.9883 93.7809 48.0369Z" fill="white"/>
<path d="M96.8605 45.3866C96.7736 45.3887 96.6901 45.4205 96.6238 45.4768C96.5576 45.533 96.5126 45.6103 96.4965 45.6956C96.4617 45.7366 96.4319 45.7814 96.4074 45.8292C96.3593 45.9204 96.3473 46.0263 96.3741 46.1259C96.4008 46.2255 96.4641 46.3113 96.5515 46.3661C96.6064 46.3963 96.6681 46.4122 96.7308 46.4122C96.7936 46.4122 96.8553 46.3963 96.9102 46.3661C97.0089 46.2978 97.0895 46.2066 97.1452 46.1003C97.2008 45.9941 97.2298 45.8759 97.2297 45.7559C97.2297 45.7074 97.2202 45.6594 97.2016 45.6146C97.1831 45.5698 97.1559 45.5291 97.1216 45.4948C97.0873 45.4605 97.0466 45.4333 97.0018 45.4147C96.957 45.3962 96.909 45.3866 96.8605 45.3866V45.3866Z" fill="white"/>
</g>
<path opacity="0.7" d="M73.4011 26.2694C78.8442 25.7753 84.2158 24.6801 89.4178 23.0037C88.9329 22.6835 88.35 22.5461 87.7732 22.6161C87.7732 22.6161 86.0971 19.2326 83.2452 19.8637C80.5924 20.4346 79.5134 23.0063 79.5161 23.0273C79.5187 23.0482 78.2774 22.1552 77.0884 22.8204C75.8995 23.4856 75.2264 24.9861 75.2264 24.9861C75.2264 24.9861 73.8882 25.6854 73.4011 26.2694Z" fill="white"/>
<path d="M50.5311 31.3577C43.7048 29.8329 37.129 27.3482 31 23.9779C31 23.9648 30.9869 23.0115 33.5874 24.1429C33.5874 24.1298 35.9443 21.0291 39.6971 23.0953C42.0331 24.3655 43.2508 27.3011 43.2508 27.3064C43.2508 27.3116 45.0395 25.887 46.4877 26.6805C47.9359 27.474 48.8001 29.8231 48.8001 29.8231C48.8001 29.8231 50.3033 30.7475 50.5311 31.3577Z" fill="white"/>
<path d="M102.368 27.982C96.2381 31.3532 89.6615 33.8388 82.8342 35.3644C82.8342 35.3514 82.8342 34.3981 85.6101 33.4946C85.6101 33.4946 88.1504 28.5189 91.9267 27.7489C94.2836 27.254 95.4516 29.2862 95.4543 29.294C95.4569 29.3019 97.201 26.5312 98.5837 26.2693C99.9665 26.0074 100.763 27.7175 100.765 27.7201C100.768 27.7228 102.158 27.5394 102.368 27.982Z" fill="white"/>
<path d="M69.253 17.8892C64.5781 18.0514 59.8984 17.7708 55.2764 17.0511C55.2764 17.0511 56.5858 16.3179 57.1698 16.3912C57.7538 16.4645 59.4586 13.5576 61.6479 13.8379C63.8373 14.1181 65 16.4567 65 16.4567C65 16.4567 67.666 15.857 69.253 17.8892Z" fill="white"/>
<path d="M62.5855 66.3607C57.9032 66.1021 53.2558 65.4007 48.7058 64.2657C48.7058 64.2657 49.9969 63.6503 50.5756 63.776C51.1544 63.9017 52.8357 61.1572 55.0066 61.6259C57.1776 62.0947 58.3404 64.538 58.3378 64.5433C58.3352 64.5485 60.9959 64.195 62.5855 66.3607Z" fill="white"/>
<path opacity="0.7" d="M48.5225 48.3302C44.5968 47.3379 40.7595 46.024 37.0495 44.402C37.4048 44.1978 37.8258 44.1405 38.2227 44.2423C38.2227 44.2423 39.4195 41.8853 41.4595 42.6029C43.3582 43.2654 44.1307 45.2767 44.1307 45.2819C44.4012 45.1358 44.7069 45.0674 45.0139 45.0845C45.3209 45.1016 45.6171 45.2035 45.8696 45.3788C46.7234 45.9969 47.2078 47.1753 47.2078 47.1753C47.2078 47.1753 48.1716 47.8405 48.5225 48.3302Z" fill="white"/>
<path opacity="0.7" d="M76.2033 61.3614C81.6348 60.6588 86.9714 59.3554 92.1152 57.4751C91.6304 57.171 91.0507 57.0554 90.4863 57.1504C90.4863 57.1504 88.826 53.8324 85.9977 54.5761C83.3632 55.2491 82.2895 57.8706 82.2921 57.881C82.2947 57.8915 81.0612 57.0561 79.8775 57.7658C78.6938 58.4755 78.0234 60.0049 78.0234 60.0049C78.0234 60.0049 76.6878 60.7565 76.2033 61.3614Z" fill="white"/>
</svg>
