<svg width="4" height="6" viewBox="0 0 4 6" fill="none" xmlns="http://www.w3.org/2000/svg">
<path d="M3.20623 3C3.20391 2.87674 3.16205 2.77907 3.06205 2.68139L1.31088 0.969761C1.23646 0.897668 1.15042 0.860458 1.04344 0.860458C0.829485 0.860458 0.65274 1.03488 0.65274 1.24651C0.65274 1.35348 0.696927 1.45116 0.778322 1.53255L2.2946 2.99767L0.778322 4.46744C0.696927 4.54651 0.65274 4.64418 0.65274 4.75349C0.65274 4.96511 0.829485 5.13953 1.04344 5.13953C1.14809 5.13953 1.23646 5.10465 1.31088 5.03023L3.06205 3.3186C3.16205 3.22093 3.20623 3.12093 3.20623 3Z" fill="black"/>
</svg>
