<svg width="13" height="13" viewBox="0 0 13 13" fill="none" xmlns="http://www.w3.org/2000/svg">
<path d="M6.5 11.7115L6.1954 12.3968C6.38932 12.483 6.61068 12.483 6.8046 12.3968L6.5 11.7115ZM5.72498 2.5744L6.26487 2.0538V2.0538L5.72498 2.5744ZM7.27502 2.5744L6.73513 2.0538V2.0538L7.27502 2.5744ZM6.0501 2.91156L5.51021 3.43216L5.51021 3.43216L6.0501 2.91156ZM6.9499 2.91156L6.41002 2.39096V2.39096L6.9499 2.91156ZM5.1851 3.095L5.51021 3.43216L6.58998 2.39096L6.26487 2.0538L5.1851 3.095ZM7.48979 3.43216L7.8149 3.095L6.73513 2.0538L6.41002 2.39096L7.48979 3.43216ZM9.28395 0.961456C8.32256 0.961456 7.40631 1.35777 6.73513 2.0538L7.8149 3.095C8.20933 2.68597 8.73835 2.46146 9.28395 2.46146V0.961456ZM12.875 5.28273C12.875 3.9883 12.5194 2.90874 11.8635 2.13985C11.201 1.36338 10.279 0.961456 9.28395 0.961456V2.46146C9.858 2.46146 10.3564 2.68453 10.7223 3.11338C11.0946 3.54981 11.375 4.25589 11.375 5.28273H12.875ZM3.71605 2.46146C4.26165 2.46146 4.79067 2.68597 5.1851 3.095L6.26487 2.0538C5.59369 1.35777 4.67744 0.961456 3.71605 0.961456V2.46146ZM1.625 5.28273C1.625 4.25263 1.90161 3.54689 2.27075 3.11187C2.63214 2.68597 3.12893 2.46146 3.71605 2.46146V0.961456C2.71212 0.961456 1.78839 1.36194 1.12702 2.14136C0.473386 2.91166 0.125 3.99156 0.125 5.28273H1.625ZM6.5 11.7115C6.8046 11.0261 6.80478 11.0262 6.80493 11.0262C6.80495 11.0263 6.80508 11.0263 6.80513 11.0263C6.80522 11.0264 6.80523 11.0264 6.80515 11.0263C6.805 11.0263 6.80451 11.0261 6.80369 11.0257C6.80205 11.0249 6.7991 11.0236 6.79487 11.0217C6.78642 11.0178 6.77288 11.0116 6.75458 11.0031C6.71799 10.9859 6.66244 10.9595 6.59066 10.924C6.44699 10.853 6.2389 10.746 5.98797 10.6053C5.48435 10.3228 4.81697 9.90928 4.15375 9.3829C2.78722 8.29834 1.625 6.8854 1.625 5.28273H0.125C0.125 7.6088 1.77528 9.41021 3.22125 10.5578C3.96428 11.1475 4.70315 11.6045 5.25422 11.9136C5.53063 12.0686 5.76199 12.1877 5.92594 12.2687C6.00797 12.3092 6.07327 12.3404 6.11907 12.3618C6.14198 12.3725 6.16002 12.3808 6.17285 12.3866C6.17927 12.3896 6.18439 12.3919 6.18816 12.3936C6.19004 12.3944 6.19159 12.3951 6.1928 12.3957C6.1934 12.3959 6.19392 12.3962 6.19436 12.3964C6.19457 12.3964 6.19483 12.3966 6.19494 12.3966C6.19518 12.3967 6.1954 12.3968 6.5 11.7115ZM11.375 5.28273C11.375 6.8854 10.2128 8.29834 8.84625 9.3829C8.18303 9.90928 7.51565 10.3228 7.01203 10.6053C6.7611 10.746 6.55301 10.853 6.40934 10.924C6.33756 10.9595 6.28201 10.9859 6.24542 11.0031C6.22712 11.0116 6.21358 11.0178 6.20513 11.0217C6.2009 11.0236 6.19795 11.0249 6.19631 11.0257C6.19549 11.0261 6.195 11.0263 6.19485 11.0263C6.19477 11.0264 6.19478 11.0264 6.19487 11.0263C6.19492 11.0263 6.19505 11.0263 6.19507 11.0262C6.19522 11.0262 6.1954 11.0261 6.5 11.7115C6.8046 12.3968 6.80482 12.3967 6.80506 12.3966C6.80517 12.3966 6.80543 12.3964 6.80564 12.3964C6.80608 12.3962 6.8066 12.3959 6.8072 12.3957C6.80841 12.3951 6.80996 12.3944 6.81184 12.3936C6.81561 12.3919 6.82073 12.3896 6.82715 12.3866C6.83998 12.3808 6.85802 12.3725 6.88093 12.3618C6.92673 12.3404 6.99203 12.3092 7.07406 12.2687C7.23801 12.1877 7.46937 12.0686 7.74578 11.9136C8.29685 11.6045 9.03572 11.1475 9.77875 10.5578C11.2247 9.41021 12.875 7.6088 12.875 5.28273H11.375ZM5.51021 3.43216C6.05094 3.99291 6.94906 3.99291 7.48979 3.43216L6.41002 2.39096C6.45918 2.33998 6.54082 2.33998 6.58998 2.39096L5.51021 3.43216Z" fill="black"/>
</svg>
