<svg width="378" height="286" viewBox="0 0 378 286" fill="none" xmlns="http://www.w3.org/2000/svg">
<path d="M366.368 101.678C361.174 95.4368 353.812 107.552 345.677 122.213C341.219 130.246 331.347 137.094 327.036 147.187C322.844 157.013 324.361 169.707 321.006 178.669C316.052 191.887 311.98 191.776 308.046 198.624C306.308 194.672 304.782 189.947 305.058 185.085C305.417 178.908 315.491 172.988 315.721 165.148C315.895 158.474 306.262 150.202 306.308 142.848C306.308 135.853 316.088 129.493 315.96 122.323C315.831 115.153 305.849 107.377 305.481 100.419C305.104 92.9275 314.342 85.8314 313.671 79.1489C312.862 71.1061 302.181 64.5339 300.858 58.5041C298.413 47.3912 299.129 34.9454 294.506 35.1568C290.149 35.3591 292.668 48.8619 290.673 60.4987C289.579 66.933 279.091 72.7055 278.54 81.2814C278.08 88.4694 287.566 97.5142 287.41 105.575C287.263 113.104 277.455 119.951 277.51 127.755C277.565 135.559 287.483 144.034 287.676 151.654C287.888 159.706 278.374 166.968 278.668 174.275C278.825 178.007 280.829 181.684 283.071 185.204C280.268 181.436 276.637 177.557 275.24 173.099C273.199 166.719 276.371 158.576 273.797 152.362C271.039 145.624 262.813 141.635 259.476 136.359C255.018 129.327 253.189 119.951 247.867 118.242C239.668 115.595 240.908 125.889 244.089 138.721C245.771 145.523 243.068 155.064 246.598 163.76C249.622 171.223 258.474 177.06 262.224 184.745C265.975 192.429 264.917 202.577 268.842 209.507C272.115 215.271 277.483 219.223 281.867 222.799L282.125 223.507C282.267 223.658 282.442 223.775 282.636 223.85C282.83 223.925 283.039 223.955 283.246 223.939C284.724 225.134 286.071 226.484 287.263 227.965C289.487 230.906 287.005 236.651 288.43 238.076C292.346 242.019 292.548 238.793 292.309 235.382C292.171 233.406 296.74 230.226 296.464 227.275C296.667 226.939 296.964 226.671 297.319 226.503C298.863 226.154 305.922 232.129 306.878 230.18C307.586 228.764 299.028 222.826 299.525 220.988C299.874 219.692 305.876 220.133 308.717 219.563C308.801 219.622 308.875 219.693 308.937 219.775C309.774 220.859 310.196 225.676 312.614 224.784C315.831 223.589 320.17 208.653 329.214 194.35C334.665 185.728 345.613 178.972 350.889 168.714C356.165 158.456 355.632 145.018 359.033 135.394C364.281 120.512 371.12 107.414 366.368 101.678ZM289.515 197.825C289.901 205.114 287.428 207.936 285.066 210.482C283.614 202.209 289.285 202.209 286.472 191.363C286.205 190.401 285.823 189.475 285.333 188.605C287.483 191.896 289.368 195.003 289.515 197.825ZM293.127 222.44C293.268 222.66 293.363 222.906 293.406 223.164C293.448 223.422 293.438 223.685 293.375 223.939C292.456 223.415 291.537 222.909 290.691 222.385C291.886 222.146 292.815 222.073 293.127 222.44Z" fill="#04A4A8"/>
<path opacity="0.5" d="M366.368 101.678C361.174 95.4368 353.812 107.552 345.677 122.213C341.219 130.246 331.347 137.094 327.036 147.187C322.844 157.013 324.361 169.707 321.006 178.669C316.052 191.887 311.98 191.776 308.046 198.624C306.308 194.672 304.782 189.947 305.058 185.085C305.417 178.908 315.491 172.988 315.721 165.148C315.895 158.474 306.262 150.202 306.308 142.848C306.308 135.853 316.088 129.493 315.96 122.323C315.831 115.153 305.849 107.377 305.481 100.419C305.104 92.9275 314.342 85.8314 313.671 79.1489C312.862 71.1061 302.181 64.5339 300.858 58.5041C298.413 47.3912 299.129 34.9454 294.506 35.1568C290.149 35.3591 292.668 48.8619 290.673 60.4987C289.579 66.933 279.091 72.7055 278.54 81.2814C278.08 88.4694 287.566 97.5142 287.41 105.575C287.263 113.104 277.455 119.951 277.51 127.755C277.565 135.559 287.483 144.034 287.676 151.654C287.888 159.706 278.374 166.968 278.668 174.275C278.825 178.007 280.829 181.684 283.071 185.204C280.268 181.436 276.637 177.557 275.24 173.099C273.199 166.719 276.371 158.576 273.797 152.362C271.039 145.624 262.813 141.635 259.476 136.359C255.018 129.327 253.189 119.951 247.867 118.242C239.668 115.595 240.908 125.889 244.089 138.721C245.771 145.523 243.068 155.064 246.598 163.76C249.622 171.223 258.474 177.06 262.224 184.745C265.975 192.429 264.917 202.577 268.842 209.507C272.115 215.271 277.483 219.223 281.867 222.799L282.125 223.507C282.267 223.658 282.442 223.775 282.636 223.85C282.83 223.925 283.039 223.955 283.246 223.939C284.724 225.134 286.071 226.484 287.263 227.965C289.487 230.906 287.005 236.651 288.43 238.076C292.346 242.019 292.548 238.793 292.309 235.382C292.171 233.406 296.74 230.226 296.464 227.275C296.667 226.939 296.964 226.671 297.319 226.503C298.863 226.154 305.922 232.129 306.878 230.18C307.586 228.764 299.028 222.826 299.525 220.988C299.874 219.692 305.876 220.133 308.717 219.563C308.801 219.622 308.875 219.693 308.937 219.775C309.774 220.859 310.196 225.676 312.614 224.784C315.831 223.589 320.17 208.653 329.214 194.35C334.665 185.728 345.613 178.972 350.889 168.714C356.165 158.456 355.632 145.018 359.033 135.394C364.281 120.512 371.12 107.414 366.368 101.678ZM289.515 197.825C289.901 205.114 287.428 207.936 285.066 210.482C283.614 202.209 289.285 202.209 286.472 191.363C286.205 190.401 285.823 189.475 285.333 188.605C287.483 191.896 289.368 195.003 289.515 197.825ZM293.127 222.44C293.268 222.66 293.363 222.906 293.406 223.164C293.448 223.422 293.438 223.685 293.375 223.939C292.456 223.415 291.537 222.909 290.691 222.385C291.886 222.146 292.815 222.073 293.127 222.44Z" fill="white"/>
<g opacity="0.2">
<path d="M303.569 190.149L302.65 189.717L299.892 198.937L300.002 177.051L305.012 162.804L304.084 162.408L300.021 173.981L300.122 153.612L308.165 140.21L307.31 139.65L300.131 151.626L300.241 129.327L307.687 118.104L306.859 117.516L300.251 127.47L300.342 108.554L305.085 98.6448L304.203 98.1484L300.361 106.228L300.462 85.1879L306.676 72.4664L305.793 71.9793L300.471 82.8624L300.572 62.9621L299.598 62.8702L299.497 82.5591L288.963 66.7124L288.163 67.2087L299.488 84.2412L299.368 107.377L288.871 96.3652L288.2 97.0086L299.368 108.719L299.267 128.141L289.11 119.253L288.503 119.97L299.258 129.373L299.148 151.921L288.678 139.843L287.97 140.449L299.138 153.345L299.028 176.803L298.945 177.023L288.77 161.885L287.979 162.381L299.01 178.798L298.899 201.373L290.498 184.469L289.625 184.846L298.89 203.468L298.752 231.071L299.727 231.163L299.874 201.74L303.569 190.149Z" fill="#039EA2"/>
<path d="M355.843 140.734L355.402 139.824L345.264 144.016L350.365 133.528L361.772 127.094L361.239 126.229L351.146 131.919L359.612 114.519L358.73 114.032L351.202 129.483L353.114 112.267L352.139 112.065L349.915 132.131L344.464 143.335L345.098 125.586L344.124 125.467L343.407 145.514L337.212 158.245L335.456 145.67L334.491 145.716L336.458 159.798L329.371 174.367L328.764 159.072L327.79 159.026L328.47 176.224L320.565 192.466L319.729 186.234L318.754 186.252L319.766 194.102L307.072 220.198L307.963 220.694L319.977 195.995L320.023 196.446L331.356 191.887L330.924 190.968L320.841 195.021L320.777 194.359L329.242 176.95L340.07 173.604L339.712 172.667L329.84 175.709L337.487 159.991L349.878 154.752L349.428 153.842L338.168 158.612L344.593 145.385L355.843 140.734Z" fill="#039EA2"/>
<path d="M282.281 195.426L281.307 195.278L280.636 204.985L275.58 194.102L278.09 181.647L277.124 181.371L274.872 192.585L268.024 177.851L269.854 162.574L268.889 162.381L267.234 176.15L261.544 163.907L262.114 164.146L262.932 149.108L261.958 148.97L261.204 162.739L260.956 162.638L254.549 148.851L255.781 134.759L254.807 134.585L253.713 147.058L246.966 132.535L246.084 132.884L253.262 148.327L245.403 143.492L244.953 144.319L253.979 149.871L259.66 162.105L252.187 159.026L251.893 159.927L260.257 163.374L266.149 176.058L257.325 171.03L256.902 171.876L266.83 177.529L273.861 192.659L265.984 189.754L265.727 190.673L274.431 193.881L280.498 206.943L280.452 207.651L272.887 203.625L272.492 204.479L281.334 209.195L281.362 208.79L292.953 233.737L293.835 233.388L281.491 206.833L282.281 195.426Z" fill="#039EA2"/>
</g>
<path d="M290.158 232.459C290.158 232.459 291.022 229.619 284.974 226.237C282.544 224.793 280.041 223.477 277.474 222.293C277.474 222.293 278.898 226.549 282.024 228.81C285.149 231.071 286.482 232.101 286.482 232.101C283.958 230.87 281.208 230.172 278.402 230.051C275.871 229.983 273.38 230.688 271.26 232.073C273.896 233.461 276.612 234.688 279.395 235.75C282.713 236.92 286.199 237.541 289.717 237.588C289.717 237.588 281.831 236.669 280.286 238.204C278.846 239.884 277.568 241.697 276.472 243.618C279.724 243.342 282.994 243.358 286.243 243.664C290.425 244.216 295.959 242.111 295.959 242.111L300.683 244.455L302.669 241.504C302.669 241.504 303.781 241.403 307.54 243.342C311.008 244.965 314.587 246.341 318.249 247.46L311.217 238.443L318.322 240.116C321.879 240.953 327.606 239.978 327.606 239.978C327.606 239.978 327.064 238.186 323.166 236.688C319.269 235.189 311.824 232.855 311.824 232.855C311.824 232.855 317.955 234.151 322.027 231.485C324.517 229.837 326.766 227.851 328.709 225.584C328.709 225.584 322.9 222.165 317.421 223.359C313.698 224.331 310.213 226.055 307.182 228.424C307.182 228.424 310.767 225.566 311.916 221.769C312.571 219.699 313.032 217.573 313.294 215.418C313.294 215.418 306.649 217.633 304.957 219.628C303.266 221.622 300.417 227.413 300.417 227.413C300.417 227.413 303.266 221.622 299.939 218.221C296.611 214.82 293.808 212.173 293.808 212.173C293.808 212.173 291.004 216.245 290.425 219.526C289.846 222.808 294.056 228.663 294.056 228.663L290.306 226.696L290.158 232.459Z" fill="#04A4A8"/>
<path opacity="0.3" d="M290.158 232.459C290.158 232.459 291.022 229.619 284.974 226.237C282.544 224.793 280.041 223.477 277.474 222.293C277.474 222.293 278.898 226.549 282.024 228.81C285.149 231.071 286.482 232.101 286.482 232.101C283.958 230.87 281.208 230.172 278.402 230.051C275.871 229.983 273.38 230.688 271.26 232.073C273.896 233.461 276.612 234.688 279.395 235.75C282.713 236.92 286.199 237.541 289.717 237.588C289.717 237.588 281.831 236.669 280.286 238.204C278.846 239.884 277.568 241.697 276.472 243.618C279.724 243.342 282.994 243.358 286.243 243.664C290.425 244.216 295.959 242.111 295.959 242.111L300.683 244.455L302.669 241.504C302.669 241.504 303.781 241.403 307.54 243.342C311.008 244.965 314.587 246.341 318.249 247.46L311.217 238.443L318.322 240.116C321.879 240.953 327.606 239.978 327.606 239.978C327.606 239.978 327.064 238.186 323.166 236.688C319.269 235.189 311.824 232.855 311.824 232.855C311.824 232.855 317.955 234.151 322.027 231.485C324.517 229.837 326.766 227.851 328.709 225.584C328.709 225.584 322.9 222.165 317.421 223.359C313.698 224.331 310.213 226.055 307.182 228.424C307.182 228.424 310.767 225.566 311.916 221.769C312.571 219.699 313.032 217.573 313.294 215.418C313.294 215.418 306.649 217.633 304.957 219.628C303.266 221.622 300.417 227.413 300.417 227.413C300.417 227.413 303.266 221.622 299.939 218.221C296.611 214.82 293.808 212.173 293.808 212.173C293.808 212.173 291.004 216.245 290.425 219.526C289.846 222.808 294.056 228.663 294.056 228.663L290.306 226.696L290.158 232.459Z" fill="white"/>
<path d="M135.184 114.234C135.184 114.234 129.256 109.482 127.73 106.421C126.443 103.82 125.505 100.143 126.811 97.3763C127.094 96.7171 127.514 96.1257 128.043 95.6417C128.573 95.1577 129.2 94.7922 129.882 94.5695C130.563 94.3468 131.285 94.2721 131.998 94.3503C132.711 94.4286 133.4 94.658 134.017 95.0232C137.694 97.3303 138.061 105.199 137.133 108.986C137.078 109.316 135.249 114.289 135.184 114.234Z" fill="#04A4A8"/>
<path d="M190.023 153.878C189.775 154.108 185.547 157.224 185.519 157.151C185.491 157.077 183.157 149.852 183.552 146.451C183.883 143.556 185.096 139.962 187.716 138.399C188.319 138.012 188.999 137.757 189.709 137.652C190.419 137.548 191.143 137.596 191.833 137.793C192.522 137.991 193.162 138.333 193.709 138.797C194.256 139.262 194.698 139.837 195.005 140.486C196.797 144.475 192.854 151.259 190.023 153.878Z" fill="#04A4A8"/>
<path d="M65.7398 121.45C65.7398 121.45 87.4509 144.227 87.3406 172.207C87.2303 200.187 65.2802 222.762 65.2802 222.762C65.2802 222.762 43.5691 199.985 43.6886 172.005C43.8081 144.025 65.7398 121.45 65.7398 121.45Z" fill="#04A4A8"/>
<path d="M96.6983 188.964C96.4112 188.651 96.1499 188.316 95.9169 187.962C94.3359 185.526 92.9848 181.987 94.0051 179.073C94.2112 178.386 94.5612 177.75 95.0318 177.207C95.5024 176.665 96.0829 176.229 96.7348 175.929C97.3867 175.628 98.0951 175.469 98.8131 175.463C99.531 175.457 100.242 175.603 100.899 175.893C103.85 177.308 105.293 182.116 105.605 186.05C106.782 185.774 107.839 185.563 108.749 185.406C109.144 184.487 109.53 183.623 109.925 182.713C110.321 181.803 110.661 180.875 111.038 179.91C111.552 178.513 112.021 177.042 112.49 175.58C110.771 174.799 105.771 172.418 103.905 170.323C102.039 168.227 100.127 164.863 100.697 161.839C100.797 161.127 101.048 160.444 101.432 159.836C101.815 159.227 102.323 158.707 102.923 158.31C103.522 157.912 104.198 157.646 104.908 157.528C105.617 157.411 106.344 157.445 107.039 157.629C111.157 158.879 113.584 166.37 113.666 170.267C113.666 170.396 113.602 171.187 113.519 172.198C113.933 170.755 114.356 169.321 114.723 167.841C115.79 163.649 116.736 159.348 117.711 155.046C117.913 154.127 118.124 153.253 118.336 152.362C116.884 151.709 111.442 149.181 109.493 146.994C107.545 144.806 105.706 141.534 106.276 138.501C106.378 137.789 106.629 137.108 107.014 136.5C107.398 135.893 107.906 135.374 108.505 134.977C109.104 134.581 109.78 134.315 110.489 134.198C111.198 134.082 111.924 134.116 112.619 134.3C116.746 135.541 119.163 143.032 119.255 146.929C119.255 147.077 119.172 148.06 119.071 149.163C119.632 146.828 120.22 144.512 120.91 142.232C122.008 138.315 123.362 134.474 124.963 130.733C124.448 130.513 118.014 127.673 115.845 125.218C113.924 123.058 112.067 119.758 112.628 116.734C112.73 116.022 112.981 115.339 113.366 114.731C113.75 114.122 114.259 113.602 114.859 113.205C115.459 112.807 116.136 112.541 116.846 112.424C117.557 112.307 118.283 112.341 118.979 112.524C123.097 113.775 125.524 121.266 125.607 125.163C125.607 125.439 125.294 129.005 125.138 130.274L125.193 130.145C126.85 126.517 128.828 123.044 131.103 119.768C133.109 116.833 135.285 114.019 137.62 111.339C139.762 108.839 141.876 106.678 143.751 104.776C144.781 103.765 145.737 102.845 146.637 102.018H146.546C146.472 102.018 148.559 97.1465 148.724 96.8524C150.654 93.4698 156.326 88.1017 160.526 89.0301C161.225 89.2119 161.879 89.5377 162.445 89.9867C163.01 90.4358 163.476 90.9981 163.812 91.6377C164.148 92.2772 164.346 92.9799 164.395 93.7006C164.443 94.4213 164.34 95.1442 164.093 95.8229C163.174 98.7551 159.956 100.731 157.254 101.678C154.552 102.625 148.402 102.184 146.895 102.046C145.976 102.965 145.001 103.884 143.953 104.996C142.115 106.927 140.056 109.133 137.979 111.67C137.427 112.35 136.857 113.104 136.297 113.82C137.492 112.809 139.155 111.449 139.33 111.339C142.575 109.243 150.048 107.129 153.357 109.923C153.895 110.406 154.327 110.996 154.625 111.655C154.923 112.315 155.081 113.028 155.089 113.752C155.097 114.475 154.954 115.192 154.67 115.858C154.386 116.523 153.967 117.122 153.439 117.617C151.279 119.786 147.547 120.043 144.707 119.621C141.867 119.198 136.435 115.815 135.304 115.071C134.081 116.67 132.859 118.352 131.682 120.181C129.507 123.467 127.627 126.94 126.066 130.559C125.974 130.77 125.91 130.991 125.827 131.202C126.333 130.605 129.348 127.526 129.587 127.314C132.583 124.869 139.78 121.937 143.374 124.345C143.962 124.767 144.455 125.306 144.824 125.929C145.192 126.552 145.426 127.244 145.513 127.962C145.599 128.68 145.535 129.409 145.326 130.101C145.116 130.793 144.764 131.434 144.294 131.984C142.382 134.373 138.696 135.044 135.828 134.943C132.528 134.824 126.02 131.487 125.781 131.358C124.317 135.011 123.089 138.754 122.104 142.563C121.36 145.385 120.726 148.271 120.11 151.176C120.79 150.404 123.594 147.499 123.787 147.343C126.783 144.898 133.98 141.966 137.574 144.374C138.162 144.796 138.655 145.335 139.023 145.958C139.392 146.581 139.626 147.273 139.713 147.991C139.799 148.709 139.735 149.438 139.526 150.13C139.316 150.822 138.964 151.463 138.493 152.013C136.582 154.402 132.896 155.083 130.037 154.972C126.811 154.853 120.56 151.682 120.036 151.415C119.751 152.729 119.476 154.053 119.2 155.377C118.281 159.697 117.463 164.026 116.442 168.245C116.102 169.716 115.716 171.15 115.33 172.602C116.387 171.481 118.336 169.477 118.529 169.33C121.516 166.885 128.723 163.953 132.317 166.352C132.904 166.775 133.398 167.315 133.766 167.938C134.134 168.562 134.369 169.255 134.456 169.974C134.542 170.693 134.478 171.422 134.268 172.115C134.058 172.808 133.707 173.449 133.236 173.999C131.315 176.389 127.638 177.06 124.77 176.959C121.902 176.858 116.58 174.303 115.091 173.558C114.438 175.957 113.74 178.32 112.94 180.617C112.582 181.592 112.269 182.621 111.865 183.54L111.258 185.011C111.791 184.947 112.095 184.928 112.095 184.928C112.095 184.928 112.15 186.289 112.021 188.513C115.183 186.225 119.733 184.257 122.702 185.636C123.346 185.966 123.913 186.427 124.37 186.988C124.826 187.549 125.161 188.199 125.353 188.897C125.544 189.594 125.589 190.324 125.484 191.039C125.379 191.755 125.127 192.441 124.743 193.054C124.549 193.379 124.327 193.687 124.081 193.973C123.524 197.348 122.119 200.526 120 203.211C119.834 203.404 117.692 205.417 116.571 206.419C117.656 205.821 118.731 205.233 119.843 204.581C121.461 203.661 123.134 202.66 124.761 201.685L127.27 200.058C128.125 199.525 128.888 198.909 129.715 198.33C130.91 197.457 132.096 196.492 133.282 195.573C132.271 193.964 129.394 189.138 128.971 186.381C128.548 183.623 128.778 179.698 130.901 177.492C131.378 176.957 131.963 176.529 132.618 176.238C133.274 175.947 133.984 175.799 134.701 175.804C135.418 175.809 136.125 175.967 136.776 176.268C137.427 176.569 138.006 177.005 138.475 177.547C141.233 180.893 139.192 188.495 137.142 191.804C137.078 191.905 136.572 192.558 135.966 193.33C137.096 192.355 138.227 191.39 139.339 190.37C142.501 187.465 145.626 184.414 148.779 181.371L150.755 179.478C149.901 178.127 146.729 172.97 146.297 170.047C145.865 167.124 146.104 163.364 148.218 161.158C148.695 160.623 149.281 160.195 149.936 159.904C150.591 159.613 151.301 159.465 152.018 159.47C152.735 159.475 153.443 159.634 154.094 159.934C154.744 160.235 155.324 160.671 155.793 161.214C158.55 164.559 156.509 172.161 154.469 175.47C154.395 175.59 153.789 176.389 153.108 177.226C154.846 175.599 156.592 173.99 158.375 172.455C161.414 169.79 164.63 167.334 167.999 165.102C167.687 164.624 163.854 158.667 163.403 155.404C162.971 152.527 163.21 148.731 165.324 146.525C165.8 145.989 166.385 145.56 167.04 145.268C167.695 144.977 168.405 144.828 169.122 144.832C169.839 144.836 170.547 144.994 171.198 145.294C171.849 145.594 172.429 146.029 172.898 146.571C175.656 149.926 173.615 157.528 171.575 160.827C171.428 161.066 169.222 163.861 168.404 164.835L168.523 164.752C171.877 162.658 175.412 160.868 179.085 159.403C182.34 158.115 185.667 157.016 189.049 156.112C192.201 155.193 195.124 154.605 197.726 154.081C199.132 153.805 200.428 153.575 201.641 153.382L201.568 153.327C201.503 153.272 205.888 150.386 206.164 150.239C209.611 148.501 217.258 147.196 220.255 150.33C220.741 150.866 221.111 151.496 221.34 152.182C221.569 152.868 221.653 153.594 221.587 154.315C221.52 155.035 221.305 155.733 220.953 156.366C220.602 156.998 220.123 157.55 219.547 157.987C217.166 159.908 213.434 159.77 210.659 159.044C207.883 158.318 203.002 154.504 201.816 153.529C200.566 153.759 199.233 154.016 197.762 154.338C195.179 154.917 192.247 155.597 189.159 156.553C188.332 156.811 187.449 157.114 186.585 157.399C188.139 157.233 190.262 157.031 190.473 157.031C194.306 157.105 201.687 159.531 202.937 163.714C203.121 164.407 203.159 165.132 203.049 165.841C202.939 166.55 202.682 167.228 202.296 167.833C201.91 168.438 201.402 168.956 200.805 169.354C200.208 169.753 199.535 170.023 198.829 170.148C195.851 170.736 192.597 168.861 190.455 166.912C188.313 164.964 185.638 159.118 185.087 157.849C183.193 158.502 181.263 159.219 179.287 160.083C175.689 161.606 172.237 163.452 168.974 165.598C168.781 165.727 168.606 165.874 168.413 166.002C169.167 165.791 173.367 164.89 173.671 164.863C177.494 164.504 185.087 166.094 186.778 170.12C187.043 170.792 187.165 171.512 187.136 172.233C187.107 172.955 186.928 173.663 186.609 174.311C186.291 174.959 185.84 175.533 185.287 175.997C184.734 176.461 184.089 176.805 183.396 177.005C180.5 177.924 177.062 176.426 174.728 174.726C172.044 172.777 168.422 166.343 168.293 166.094C165.092 168.329 162.037 170.767 159.148 173.393C156.997 175.323 154.901 177.373 152.814 179.45C153.798 179.193 157.704 178.365 157.989 178.338C161.813 177.979 169.415 179.57 171.097 183.586C171.362 184.258 171.484 184.978 171.455 185.699C171.426 186.421 171.246 187.129 170.928 187.777C170.61 188.425 170.159 188.999 169.606 189.463C169.052 189.927 168.408 190.271 167.714 190.471C164.819 191.39 161.381 189.892 159.056 188.201C156.427 186.289 152.934 180.14 152.621 179.625L149.781 182.456C146.711 185.572 143.632 188.706 140.507 191.703C139.431 192.742 138.328 193.725 137.225 194.709C138.705 194.368 141.426 193.789 141.665 193.789C145.488 193.431 153.081 195.021 154.772 199.047C155.037 199.719 155.16 200.439 155.13 201.16C155.101 201.882 154.922 202.589 154.603 203.237C154.285 203.886 153.835 204.46 153.281 204.924C152.728 205.388 152.083 205.731 151.39 205.932C148.494 206.851 145.056 205.353 142.722 203.652C140.387 201.952 137.335 196.85 136.49 195.38C134.651 197.016 132.813 198.588 130.873 200.058C130.037 200.665 129.219 201.345 128.382 201.897L125.919 203.579C124.191 204.663 122.592 205.674 120.955 206.649C120.137 207.145 119.347 207.568 118.547 208.064C120 207.485 122.316 206.612 122.536 206.557C126.268 205.638 134.008 206.015 136.278 209.728C136.645 210.355 136.876 211.051 136.958 211.773C137.039 212.495 136.968 213.225 136.75 213.918C136.532 214.611 136.171 215.25 135.691 215.795C135.211 216.34 134.622 216.778 133.962 217.081C131.204 218.433 127.62 217.477 125.055 216.162C122.233 214.71 117.996 209.37 117.472 208.717C115.505 209.857 113.574 210.951 111.745 211.943C106.874 214.59 102.618 216.705 99.3179 218.286C88.5911 227.707 73.4981 228.746 73.4981 228.746C73.4981 228.746 72.7076 210.362 83.3517 198.284C87.0581 194.23 91.616 191.047 96.6983 188.964ZM115.845 206.879C115.514 206.125 112.94 200.288 112.766 196.997C112.168 196.887 111.571 196.758 110.992 196.62C109.904 202.413 107.635 207.92 104.327 212.798C106.276 211.879 108.39 210.813 110.633 209.654C112.297 208.8 114.052 207.862 115.845 206.879Z" fill="#04A4A8"/>
<path d="M17.6113 185.452C17.6113 185.452 35.6916 186.013 46.7678 197.705C57.8439 209.397 57.6969 227.781 57.6969 227.781C57.6969 227.781 39.6165 227.22 28.5404 215.528C17.4642 203.836 17.6113 185.452 17.6113 185.452Z" fill="#04A4A8"/>
<g opacity="0.5">
<path d="M135.184 114.234C135.184 114.234 129.255 109.482 127.729 106.421C126.442 103.82 125.505 100.143 126.81 97.3763C127.093 96.7171 127.513 96.1257 128.043 95.6417C128.572 95.1577 129.199 94.7922 129.881 94.5695C130.563 94.3468 131.284 94.2721 131.998 94.3503C132.711 94.4286 133.399 94.658 134.016 95.0232C137.693 97.3303 138.061 105.199 137.132 108.986C137.077 109.316 135.248 114.289 135.184 114.234Z" fill="white"/>
<path d="M190.022 153.878C189.774 154.108 185.546 157.224 185.518 157.151C185.491 157.077 183.156 149.852 183.551 146.451C183.882 143.556 185.096 139.962 187.715 138.399C188.319 138.012 188.998 137.757 189.708 137.652C190.418 137.548 191.142 137.596 191.832 137.793C192.522 137.991 193.161 138.333 193.709 138.797C194.256 139.262 194.697 139.837 195.004 140.486C196.797 144.475 192.853 151.259 190.022 153.878Z" fill="white"/>
<path d="M65.7397 121.45C65.7397 121.45 87.4508 144.227 87.3405 172.207C87.2302 200.187 65.2801 222.762 65.2801 222.762C65.2801 222.762 43.569 199.985 43.6885 172.005C43.808 144.025 65.7397 121.45 65.7397 121.45Z" fill="white"/>
<path d="M96.6976 188.964C96.4105 188.651 96.1492 188.316 95.9163 187.962C94.3353 185.526 92.9841 181.987 94.0044 179.073C94.2105 178.386 94.5605 177.75 95.0311 177.207C95.5018 176.665 96.0823 176.229 96.7342 175.929C97.3861 175.628 98.0945 175.469 98.8124 175.463C99.5303 175.457 100.241 175.603 100.898 175.893C103.849 177.308 105.292 182.116 105.604 186.05C106.781 185.774 107.838 185.563 108.748 185.406C109.143 184.487 109.529 183.623 109.925 182.713C110.32 181.803 110.66 180.875 111.037 179.91C111.552 178.513 112.02 177.042 112.489 175.58C110.77 174.799 105.77 172.418 103.904 170.323C102.038 168.227 100.126 164.863 100.696 161.839C100.797 161.127 101.047 160.444 101.431 159.836C101.815 159.227 102.323 158.707 102.922 158.31C103.521 157.912 104.198 157.646 104.907 157.528C105.617 157.411 106.343 157.445 107.038 157.629C111.156 158.879 113.583 166.37 113.666 170.267C113.666 170.396 113.601 171.187 113.519 172.198C113.932 170.755 114.355 169.321 114.723 167.841C115.789 163.649 116.736 159.348 117.71 155.046C117.912 154.127 118.124 153.253 118.335 152.362C116.883 151.709 111.441 149.181 109.493 146.994C107.544 144.806 105.706 141.534 106.275 138.501C106.377 137.789 106.629 137.108 107.013 136.5C107.397 135.893 107.905 135.374 108.504 134.977C109.103 134.581 109.78 134.315 110.489 134.198C111.198 134.082 111.923 134.116 112.618 134.3C116.745 135.541 119.162 143.032 119.254 146.929C119.254 147.077 119.172 148.06 119.07 149.163C119.631 146.828 120.219 144.512 120.909 142.232C122.008 138.315 123.362 134.474 124.962 130.733C124.448 130.513 118.013 127.673 115.844 125.218C113.923 123.058 112.066 119.758 112.627 116.734C112.729 116.022 112.981 115.339 113.365 114.731C113.75 114.122 114.259 113.602 114.859 113.205C115.458 112.807 116.136 112.541 116.846 112.424C117.556 112.307 118.283 112.341 118.979 112.524C123.097 113.775 125.523 121.266 125.606 125.163C125.606 125.439 125.293 129.005 125.137 130.274L125.192 130.145C126.849 126.517 128.827 123.044 131.103 119.768C133.109 116.833 135.285 114.019 137.62 111.339C139.761 108.839 141.875 106.678 143.751 104.776C144.78 103.765 145.736 102.845 146.637 102.018H146.545C146.471 102.018 148.558 97.1465 148.723 96.8524C150.654 93.4698 156.325 88.1017 160.526 89.0301C161.225 89.2119 161.878 89.5377 162.444 89.9867C163.01 90.4358 163.476 90.9981 163.811 91.6377C164.147 92.2772 164.346 92.9799 164.394 93.7006C164.442 94.4213 164.339 95.1442 164.092 95.8229C163.173 98.7551 159.956 100.731 157.253 101.678C154.551 102.625 148.402 102.184 146.894 102.046C145.975 102.965 145.001 103.884 143.953 104.996C142.114 106.927 140.055 109.133 137.978 111.67C137.427 112.35 136.857 113.104 136.296 113.82C137.491 112.809 139.155 111.449 139.329 111.339C142.574 109.243 150.047 107.129 153.356 109.923C153.894 110.406 154.326 110.996 154.624 111.655C154.923 112.315 155.081 113.028 155.089 113.752C155.096 114.475 154.954 115.192 154.67 115.858C154.386 116.523 153.966 117.122 153.439 117.617C151.279 119.786 147.547 120.043 144.706 119.621C141.866 119.198 136.434 115.815 135.303 115.071C134.081 116.67 132.858 118.352 131.682 120.181C129.506 123.467 127.627 126.94 126.065 130.559C125.974 130.77 125.909 130.991 125.826 131.202C126.332 130.605 129.347 127.526 129.586 127.314C132.582 124.869 139.78 121.937 143.374 124.345C143.961 124.767 144.455 125.306 144.823 125.929C145.191 126.552 145.426 127.244 145.512 127.962C145.599 128.68 145.535 129.409 145.325 130.101C145.115 130.793 144.764 131.434 144.293 131.984C142.381 134.373 138.695 135.044 135.827 134.943C132.527 134.824 126.02 131.487 125.781 131.358C124.316 135.011 123.088 138.754 122.104 142.563C121.359 145.385 120.725 148.271 120.109 151.176C120.789 150.404 123.593 147.499 123.786 147.343C126.782 144.898 133.98 141.966 137.574 144.374C138.161 144.796 138.655 145.335 139.023 145.958C139.391 146.581 139.626 147.273 139.712 147.991C139.799 148.709 139.735 149.438 139.525 150.13C139.315 150.822 138.964 151.463 138.493 152.013C136.581 154.402 132.895 155.083 130.036 154.972C126.81 154.853 120.56 151.682 120.036 151.415C119.751 152.729 119.475 154.053 119.199 155.377C118.28 159.697 117.462 164.026 116.442 168.245C116.102 169.716 115.715 171.15 115.329 172.602C116.386 171.481 118.335 169.477 118.528 169.33C121.516 166.885 128.722 163.953 132.316 166.352C132.904 166.775 133.397 167.315 133.766 167.938C134.134 168.562 134.369 169.255 134.455 169.974C134.541 170.693 134.478 171.422 134.268 172.115C134.058 172.808 133.706 173.449 133.235 173.999C131.314 176.389 127.637 177.06 124.769 176.959C121.902 176.858 116.58 174.303 115.09 173.558C114.438 175.957 113.739 178.32 112.94 180.617C112.581 181.592 112.269 182.621 111.864 183.54L111.257 185.011C111.791 184.947 112.094 184.928 112.094 184.928C112.094 184.928 112.149 186.289 112.02 188.513C115.182 186.225 119.732 184.257 122.701 185.636C123.345 185.966 123.913 186.427 124.369 186.988C124.825 187.549 125.16 188.199 125.352 188.897C125.544 189.594 125.589 190.324 125.484 191.039C125.379 191.755 125.126 192.441 124.742 193.054C124.548 193.379 124.327 193.687 124.08 193.973C123.523 197.348 122.119 200.526 119.999 203.211C119.833 203.404 117.692 205.417 116.57 206.419C117.655 205.821 118.73 205.233 119.843 204.581C121.46 203.661 123.133 202.66 124.76 201.685L127.27 200.058C128.124 199.525 128.887 198.909 129.715 198.33C130.91 197.457 132.095 196.492 133.281 195.573C132.27 193.964 129.393 189.138 128.97 186.381C128.547 183.623 128.777 179.698 130.9 177.492C131.377 176.957 131.963 176.529 132.618 176.238C133.273 175.947 133.983 175.799 134.7 175.804C135.417 175.809 136.125 175.967 136.775 176.268C137.426 176.569 138.006 177.005 138.474 177.547C141.232 180.893 139.191 188.495 137.142 191.804C137.077 191.905 136.572 192.558 135.965 193.33C137.096 192.355 138.226 191.39 139.338 190.37C142.5 187.465 145.626 184.414 148.778 181.371L150.755 179.478C149.9 178.127 146.729 172.97 146.297 170.047C145.865 167.124 146.104 163.364 148.218 161.158C148.694 160.623 149.28 160.195 149.935 159.904C150.59 159.613 151.3 159.465 152.017 159.47C152.734 159.475 153.442 159.634 154.093 159.934C154.744 160.235 155.323 160.671 155.792 161.214C158.549 164.559 156.509 172.161 154.468 175.47C154.395 175.59 153.788 176.389 153.108 177.226C154.845 175.599 156.592 173.99 158.375 172.455C161.414 169.79 164.629 167.334 167.999 165.102C167.686 164.624 163.853 158.667 163.403 155.404C162.971 152.527 163.21 148.731 165.324 146.525C165.8 145.989 166.385 145.56 167.04 145.268C167.695 144.977 168.404 144.828 169.121 144.832C169.838 144.836 170.546 144.994 171.197 145.294C171.849 145.594 172.428 146.029 172.898 146.571C175.655 149.926 173.615 157.528 171.574 160.827C171.427 161.066 169.221 163.861 168.403 164.835L168.523 164.752C171.877 162.658 175.411 160.868 179.084 159.403C182.339 158.115 185.666 157.016 189.048 156.112C192.201 155.193 195.124 154.605 197.725 154.081C199.131 153.805 200.427 153.575 201.641 153.382L201.567 153.327C201.503 153.272 205.887 150.386 206.163 150.239C209.61 148.501 217.258 147.196 220.254 150.33C220.74 150.866 221.11 151.496 221.339 152.182C221.569 152.868 221.653 153.594 221.586 154.315C221.52 155.035 221.304 155.733 220.953 156.366C220.602 156.998 220.123 157.55 219.546 157.987C217.166 159.908 213.434 159.77 210.658 159.044C207.882 158.318 203.001 154.504 201.815 153.529C200.565 153.759 199.232 154.016 197.762 154.338C195.179 154.917 192.247 155.597 189.158 156.553C188.331 156.811 187.449 157.114 186.584 157.399C188.138 157.233 190.261 157.031 190.473 157.031C194.306 157.105 201.687 159.531 202.937 163.714C203.121 164.407 203.159 165.132 203.048 165.841C202.938 166.55 202.681 167.228 202.295 167.833C201.909 168.438 201.401 168.956 200.805 169.354C200.208 169.753 199.535 170.023 198.828 170.148C195.85 170.736 192.596 168.861 190.454 166.912C188.313 164.964 185.638 159.118 185.086 157.849C183.193 158.502 181.262 159.219 179.286 160.083C175.689 161.606 172.237 163.452 168.973 165.598C168.78 165.727 168.605 165.874 168.412 166.002C169.166 165.791 173.367 164.89 173.67 164.863C177.494 164.504 185.086 166.094 186.777 170.12C187.043 170.792 187.165 171.512 187.136 172.233C187.107 172.955 186.927 173.663 186.609 174.311C186.29 174.959 185.84 175.533 185.286 175.997C184.733 176.461 184.089 176.805 183.395 177.005C180.499 177.924 177.062 176.426 174.727 174.726C172.043 172.777 168.421 166.343 168.293 166.094C165.091 168.329 162.036 170.767 159.147 173.393C156.996 175.323 154.9 177.373 152.814 179.45C153.797 179.193 157.704 178.365 157.989 178.338C161.812 177.979 169.414 179.57 171.096 183.586C171.362 184.258 171.484 184.978 171.454 185.699C171.425 186.421 171.246 187.129 170.927 187.777C170.609 188.425 170.159 188.999 169.605 189.463C169.052 189.927 168.407 190.271 167.714 190.471C164.818 191.39 161.38 189.892 159.055 188.201C156.426 186.289 152.933 180.14 152.621 179.625L149.78 182.456C146.71 185.572 143.631 188.706 140.506 191.703C139.43 192.742 138.327 193.725 137.224 194.709C138.704 194.368 141.425 193.789 141.664 193.789C145.488 193.431 153.08 195.021 154.772 199.047C155.037 199.719 155.159 200.439 155.13 201.16C155.101 201.882 154.921 202.589 154.603 203.237C154.284 203.886 153.834 204.46 153.28 204.924C152.727 205.388 152.083 205.731 151.389 205.932C148.494 206.851 145.056 205.353 142.721 203.652C140.386 201.952 137.335 196.85 136.489 195.38C134.651 197.016 132.812 198.588 130.873 200.058C130.036 200.665 129.218 201.345 128.382 201.897L125.918 203.579C124.19 204.663 122.591 205.674 120.955 206.649C120.137 207.145 119.346 207.568 118.547 208.064C119.999 207.485 122.315 206.612 122.536 206.557C126.268 205.638 134.007 206.015 136.278 209.728C136.644 210.355 136.876 211.051 136.957 211.773C137.038 212.495 136.967 213.225 136.749 213.918C136.531 214.611 136.17 215.25 135.69 215.795C135.21 216.34 134.621 216.778 133.961 217.081C131.204 218.433 127.619 217.477 125.054 216.162C122.232 214.71 117.995 209.37 117.471 208.717C115.504 209.857 113.574 210.951 111.745 211.943C106.873 214.59 102.617 216.705 99.3173 218.286C88.5904 227.707 73.4974 228.746 73.4974 228.746C73.4974 228.746 72.7069 210.362 83.351 198.284C87.0574 194.23 91.6153 191.047 96.6976 188.964ZM115.844 206.879C115.513 206.125 112.94 200.288 112.765 196.997C112.167 196.887 111.57 196.758 110.991 196.62C109.903 202.413 107.635 207.92 104.327 212.798C106.275 211.879 108.39 210.813 110.632 209.654C112.296 208.8 114.052 207.862 115.844 206.879Z" fill="white"/>
<path d="M17.6112 185.452C17.6112 185.452 35.6915 186.013 46.7677 197.705C57.8438 209.397 57.6967 227.781 57.6967 227.781C57.6967 227.781 39.6164 227.22 28.5403 215.528C17.4641 203.836 17.6112 185.452 17.6112 185.452Z" fill="white"/>
</g>
<g opacity="0.2">
<path d="M64.848 197.291L47.0802 181.059L47.8431 180.195L64.8572 195.747L64.9491 174.468L64.8572 174.533L49.8286 152.206L50.7661 151.553L64.9583 172.63L65.1697 121.45H66.3095L66.1624 156.195L77.4684 146.249L78.2221 147.122L66.1532 157.73L66.0521 182.575L83.1949 167.161L83.9486 168.025L66.0429 184.12L65.951 206.741L78.8288 196.464L79.5365 197.374L65.9418 208.221L65.8775 222.78L64.7377 222.771L64.848 197.291Z" fill="#039EA2"/>
<path d="M81.2096 203.56L82.3402 203.422L83.7742 216.282L91.4034 207.614H91.3942L93.3245 192.052L94.4551 192.199L92.727 206.116L111.681 184.579L112.535 185.351L99.6668 199.966L107.811 200.067L107.802 201.226L98.6649 201.106L89.6386 211.355L102.378 211.373V212.532L88.6274 212.513L80.4192 221.834L89.4088 222.385L89.3352 223.534L79.454 222.937L73.9941 229.141L73.1392 228.369L82.7631 217.44L81.2096 203.56Z" fill="#039EA2"/>
<path d="M38.2841 208.138L23.1635 205.022L23.3933 203.882L36.9237 206.676L17.198 185.857L18.0161 185.048L31.3994 199.176L32.1071 190.931L33.2377 191.032L32.4472 200.288L41.8321 210.188L42.7972 197.282L43.937 197.374L42.8892 211.309L51.4192 220.317L52.6325 211.254L53.7539 211.41L52.4303 221.383L58.1108 227.376L57.2928 228.185L47.2828 217.615L33.5503 218.157L33.5043 216.999L46.2258 216.502L38.2932 208.119L38.2841 208.138Z" fill="#039EA2"/>
</g>
<path d="M112.637 231.421L0 249.391L207.515 285.34L377.481 255.926L112.637 231.421Z" fill="#067A7D"/>
<path opacity="0.15" d="M184.305 259.41C215.973 259.41 241.644 256.352 241.644 252.58C241.644 248.809 215.973 245.751 184.305 245.751C152.638 245.751 126.967 248.809 126.967 252.58C126.967 256.352 152.638 259.41 184.305 259.41Z" fill="#039EA2"/>
<path d="M179.526 178.513C179.526 178.513 174.746 179.882 160.076 179.542C145.406 179.202 124.228 172.372 116.047 172.372C107.866 172.372 98.9685 175.443 95.5676 182.272C92.1666 189.102 89.0781 197.632 108.877 205.481C128.677 213.331 143.687 215.721 172.016 222.882C200.345 230.042 211.605 230.391 226.248 226.641C240.89 222.891 250.818 213.331 249.457 199.985C248.097 186.638 245.017 178.485 237.857 176.435C230.697 174.385 179.526 178.513 179.526 178.513Z" fill="#263238" stroke="#263238" stroke-width="0.919183" stroke-linecap="round" stroke-linejoin="round"/>
<path d="M202.422 69.8008C202.422 69.8008 202.937 76.2903 201.126 79.9118C199.316 83.5334 192.036 87.1826 185.804 90.556C179.572 93.9294 170.747 93.4146 167.117 99.1227C163.486 104.831 163.743 114.436 163.743 114.436C163.743 114.436 158.026 123.27 153.357 131.055C148.687 138.841 146.086 146.893 152.06 151.277C158.035 155.662 165.297 149.2 169.194 143.005C173.091 136.809 176.722 129.768 176.722 129.768C176.722 129.768 181.695 153.878 180.353 160.395C179.011 166.912 175.941 173.117 175.941 176.022C175.941 178.926 178.276 180.958 181.916 181.73C185.555 182.502 198.01 183.568 206.577 183.035C215.144 182.502 239.548 180.958 240.587 177.575C241.626 174.192 243.179 150.836 243.179 150.836C243.179 150.836 258.493 156.029 263.171 146.69C267.85 137.352 268.098 116.357 264.725 105.925C261.351 95.492 252.775 91.6498 247.591 89.0577C242.407 86.4656 228.123 79.7096 225.531 76.851C222.939 73.9923 222.139 59.9288 222.139 55.2594C222.139 50.5899 221.624 55.002 216.688 58.6328C211.752 62.2635 202.422 69.8008 202.422 69.8008Z" fill="white"/>
<path d="M264.725 105.879C261.351 95.5012 252.775 91.6038 247.591 89.0117C242.407 86.4196 228.123 79.6636 225.531 76.805C222.939 73.9463 222.139 59.9288 222.139 55.2594C222.139 50.5899 221.624 55.002 216.688 58.6328C211.752 62.2635 202.413 69.8008 202.413 69.8008C202.51 71.273 202.51 72.7499 202.413 74.2221C205.364 75.4997 209.27 76.9796 211.449 76.9796C215.245 76.9796 216.385 79.6361 217.883 82.2925C219.381 84.9489 216.743 87.9823 216.743 87.9823C216.743 87.9823 228.886 88.7452 233.059 89.8758C237.232 91.0064 248.235 92.5322 255.064 98.2311C260.46 102.717 264.192 110.98 266.646 116.321C266.381 112.781 265.737 109.281 264.725 105.879Z" fill="white"/>
<path opacity="0.6" d="M264.725 105.879C261.351 95.5012 252.775 91.6038 247.591 89.0117C242.407 86.4196 228.123 79.6636 225.531 76.805C222.939 73.9463 222.139 59.9288 222.139 55.2594C222.139 50.5899 221.624 55.002 216.688 58.6328C211.752 62.2635 202.413 69.8008 202.413 69.8008C202.51 71.273 202.51 72.7499 202.413 74.2221C205.364 75.4997 209.27 76.9796 211.449 76.9796C215.245 76.9796 216.385 79.6361 217.883 82.2925C219.381 84.9489 216.743 87.9823 216.743 87.9823C216.743 87.9823 228.886 88.7452 233.059 89.8758C237.232 91.0064 248.235 92.5322 255.064 98.2311C260.46 102.717 264.192 110.98 266.646 116.321C266.381 112.781 265.737 109.281 264.725 105.879Z" fill="white"/>
<path d="M202.422 69.8008C202.422 69.8008 202.937 76.2902 201.126 79.9118C199.316 83.5334 192.036 87.1826 185.804 90.556C179.572 93.9294 170.747 93.4146 167.117 99.1227C163.486 104.831 163.743 114.436 163.743 114.436C163.743 114.436 158.026 123.27 153.357 131.055C148.687 138.841 146.086 146.893 152.06 151.277C158.035 155.662 165.297 149.2 169.194 143.005C173.091 136.809 176.722 129.768 176.722 129.768C176.722 129.768 181.695 153.878 180.353 160.395C179.011 166.912 175.941 173.117 175.941 176.022C175.941 178.926 178.276 180.958 181.916 181.73C185.555 182.502 198.01 183.568 206.577 183.035C215.144 182.502 239.548 180.958 240.587 177.575C241.626 174.192 243.179 150.836 243.179 150.836C243.179 150.836 258.493 156.029 263.171 146.69C267.85 137.352 268.098 116.357 264.725 105.925C261.351 95.492 252.775 91.6498 247.591 89.0577C242.407 86.4656 228.123 79.7096 225.531 76.8509C222.939 73.9923 222.139 59.9288 222.139 55.2594C222.139 50.5899 221.624 55.002 216.688 58.6328C211.752 62.2635 202.422 69.8008 202.422 69.8008Z" stroke="#263238" stroke-width="0.919183" stroke-linecap="round" stroke-linejoin="round"/>
<path d="M238.767 39.4218C240.844 35.5337 243.96 28.7777 239.805 24.1083C235.651 19.4388 233.059 22.2699 232.535 17.6188C232.011 12.9678 230.981 8.01336 226.303 8.01336C221.624 8.01336 218.26 9.85173 215.401 8.01336C212.542 6.175 210.208 1 202.937 1C195.666 1 195.675 12.1681 194.37 13.4641C193.728 13.9271 193.009 14.2725 192.247 14.4844C191.976 14.4169 191.724 14.2905 191.508 14.1141C191.292 13.9377 191.117 13.7158 190.997 13.4641C189.701 10.872 193.331 11.1294 194.894 7.23206C196.457 3.33472 192.035 0.742631 188.919 3.07736C185.803 5.41208 192.293 5.15471 188.662 9.05204C185.031 12.9494 182.954 17.6188 186.291 23.3545C189.627 29.0902 193.561 25.6892 193.561 25.6892C194.333 25.1745 195.032 28.0975 201.953 29.366C208.544 30.5701 213.048 28.4468 213.572 35.69C214.096 42.9331 220.558 46.9867 222.378 48.0254C224.198 49.0641 219.519 54.7814 220.539 57.3735C221.56 59.9656 224.951 59.7082 227.029 59.4508C229.106 59.1935 227.81 56.0774 232.222 55.5535C236.634 55.0296 238.188 53.7151 240.008 48.8067C241.828 43.8983 236.689 43.3192 238.767 39.4218Z" fill="#263238" stroke="#263238" stroke-width="0.919183" stroke-linecap="round" stroke-linejoin="round"/>
<path d="M237.875 32.4269C238.668 32.5199 239.466 32.3169 240.118 31.857" stroke="white" stroke-width="0.919183" stroke-linecap="round" stroke-linejoin="round"/>
<path d="M221.927 21.8563C221.927 21.8563 226.523 18.1795 229.207 22.7754C230.853 25.533 232.994 29.2097 235.329 31.1768" stroke="white" stroke-width="0.919183" stroke-linecap="round" stroke-linejoin="round"/>
<path d="M219.657 34.5869C222.504 34.0544 225.41 33.8999 228.297 34.1273C232.388 34.5869 231.974 37.8041 236.478 37.8041" stroke="white" stroke-width="0.919183" stroke-linecap="round" stroke-linejoin="round"/>
<path d="M200.676 17.3523C201.058 17.8196 201.49 18.2449 201.963 18.6207" stroke="white" stroke-width="0.919183" stroke-linecap="round" stroke-linejoin="round"/>
<path d="M219.473 17.3982C219.473 17.3982 218.296 21.3967 213.746 15.9459C209.196 10.4952 206.044 4.18037 200.878 9.59436C200.26 10.1494 199.781 10.8422 199.481 11.6168C199.181 12.3914 199.067 13.2258 199.15 14.0524" stroke="white" stroke-width="0.919183" stroke-linecap="round" stroke-linejoin="round"/>
<path d="M189.195 18.8781C188.747 17.9511 188.437 16.9631 188.276 15.9459" stroke="white" stroke-width="0.919183" stroke-linecap="round" stroke-linejoin="round"/>
<path d="M197.376 23.2166C197.376 23.2166 193.01 23.7314 190.261 20.5051" stroke="white" stroke-width="0.919183" stroke-linecap="round" stroke-linejoin="round"/>
<path d="M247.591 89.0117C243.547 86.9803 233.969 82.4304 228.721 79.1765C226.993 84.3607 221.919 96.2733 211.771 96.2733C202.414 96.2733 199.665 87.5227 198.902 82.6234C195.795 85.381 190.529 88.0282 185.841 90.5652C179.618 93.9386 170.784 93.4238 167.154 99.1319C163.523 104.84 163.78 114.446 163.78 114.446C163.78 114.446 161.85 117.433 159.322 121.45C169.81 120.926 176.787 129.768 176.787 129.768C176.787 129.768 181.695 153.878 180.353 160.395C179.011 166.912 175.941 173.117 175.941 176.022C175.941 178.926 178.276 180.958 181.916 181.73C185.556 182.502 198.011 183.568 206.577 183.035C215.144 182.502 239.549 180.958 240.587 177.575C241.626 174.192 243.179 150.836 243.179 150.836L241.626 130.329C254.669 121.707 263.787 127.746 266.775 130.329C267.418 121.514 266.683 111.945 264.725 105.916C261.352 95.5012 252.785 91.6038 247.591 89.0117Z" fill="white"/>
<path opacity="0.15" d="M264.725 105.879C261.351 95.5012 252.775 91.6038 247.591 89.0117C242.407 86.4196 228.123 79.6637 225.531 76.805C222.939 73.9463 222.139 59.9288 222.139 55.2594C222.139 50.5899 221.624 55.002 216.688 58.6328C211.752 62.2635 202.413 69.8008 202.413 69.8008C202.51 71.273 202.51 72.7499 202.413 74.2221C205.364 75.4998 209.27 76.9796 211.449 76.9796C215.245 76.9796 216.385 79.6361 217.883 82.2925C219.381 84.949 216.743 87.9823 216.743 87.9823C216.743 87.9823 228.886 88.7452 233.059 89.8758C237.232 91.0064 248.235 92.5322 255.064 98.2312C260.46 102.717 264.192 110.98 266.646 116.321C266.381 112.781 265.736 109.281 264.725 105.879Z" fill="#039EA2"/>
<path opacity="0.15" d="M229.281 89.5357C229.281 89.5357 225.484 96.7421 218.25 99.0217C214.1 100.389 209.665 100.652 205.382 99.7846C205.382 99.7846 210.695 102.818 218.664 100.924C226.633 99.0308 229.281 89.5357 229.281 89.5357Z" fill="#039EA2"/>
<path opacity="0.15" d="M239.907 125.191C239.907 125.191 240.283 137.333 235.734 140.367C231.184 143.4 216.762 146.056 211.072 144.54C205.382 143.023 200.042 135.054 194.756 136.57C189.471 138.087 180.334 147.959 180.334 147.959L180.711 154.788L197.027 146.819C197.027 146.819 208.057 153.253 220.172 161.232C232.287 169.21 220.935 171.104 220.935 171.104L205.759 176.794C205.759 176.794 215.622 172.997 223.223 172.997C230.825 172.997 225.88 174.514 225.88 174.514H240.293L240.596 177.529L243.354 158.962L242.591 136.57C242.591 136.57 241.809 121.395 239.907 125.191Z" fill="#039EA2"/>
<path d="M247.591 89.0117C243.547 86.9803 233.969 82.4304 228.721 79.1765C226.993 84.3607 221.919 96.2733 211.771 96.2733C202.414 96.2733 199.665 87.5227 198.902 82.6234C195.795 85.381 190.529 88.0282 185.841 90.5652C179.618 93.9386 170.784 93.4238 167.154 99.1319C163.523 104.84 163.78 114.446 163.78 114.446C163.78 114.446 161.85 117.433 159.322 121.45C169.81 120.926 176.787 129.768 176.787 129.768C176.787 129.768 181.695 153.878 180.353 160.395C179.011 166.912 175.941 173.117 175.941 176.022C175.941 178.926 178.276 180.958 181.916 181.73C185.556 182.502 198.011 183.568 206.577 183.035C215.144 182.502 239.549 180.958 240.587 177.575C241.626 174.192 243.179 150.836 243.179 150.836L241.626 130.329C254.669 121.707 263.787 127.746 266.775 130.329C267.418 121.514 266.683 111.945 264.725 105.916C261.352 95.5012 252.785 91.6038 247.591 89.0117Z" stroke="#263238" stroke-width="0.919183" stroke-linecap="round" stroke-linejoin="round"/>
<path d="M176.722 129.768C176.722 129.768 172.705 117.424 174.406 110.934" stroke="#263238" stroke-width="0.919183" stroke-linecap="round" stroke-linejoin="round"/>
<path d="M241.625 130.283C240.67 125.442 240.91 120.441 242.324 115.714" stroke="#263238" stroke-width="0.919183" stroke-linecap="round" stroke-linejoin="round"/>
<path d="M181.916 181.684C181.916 181.684 194.545 179.845 203.057 177.832" stroke="#263238" stroke-width="0.919183" stroke-linecap="round" stroke-linejoin="round"/>
<path d="M151.711 136.414C151.711 136.414 149.146 137.774 147.115 142.729C145.084 147.683 142.519 156.884 145.065 159.789C147.611 162.693 153.43 160.129 158.853 159.449C164.276 158.769 187.007 145.459 190.758 143.234C194.508 141.01 197.587 140.164 198.782 138.114C199.977 136.065 199.637 128.73 199.803 125.145C199.968 121.56 199.122 105.52 199.122 105.52C199.122 105.52 197.927 101.595 195.878 101.935C195.878 101.935 193.488 100.575 192.982 101.935L191.953 104.693C191.953 104.693 189.737 104.013 189.195 105.208C188.825 106.371 188.596 107.575 188.515 108.793C188.515 108.793 185.96 109.987 185.96 111.55C185.96 113.113 186.465 122.305 186.465 124.86C186.465 127.415 186.125 131.349 186.98 133.05C187.835 134.75 188.69 136.294 188.69 136.294C188.69 136.294 176.225 138.004 170.94 138.004C165.655 138.004 156.435 138.17 154.726 139.024" fill="white"/>
<path d="M198.81 138.069C199.408 137.039 199.628 134.668 199.729 132.103L191.53 133.886C191.53 133.886 192.367 137.637 187.771 140.56C183.175 143.483 158.164 151.82 156.519 152.233C154.873 152.647 172.374 144.733 165.71 145.146C159.046 145.56 151.105 152.656 146.518 152.656C145.784 152.661 145.053 152.559 144.349 152.353C143.843 155.496 143.88 158.346 145.111 159.706C147.667 162.611 153.476 160.046 158.899 159.366C164.322 158.686 187.054 145.376 190.804 143.152C194.554 140.927 197.615 140.091 198.81 138.069Z" fill="white"/>
<path opacity="0.6" d="M198.81 138.069C199.408 137.039 199.628 134.668 199.729 132.103L191.53 133.886C191.53 133.886 192.367 137.637 187.771 140.56C183.175 143.483 158.164 151.82 156.519 152.233C154.873 152.647 172.374 144.733 165.71 145.146C159.046 145.56 151.105 152.656 146.518 152.656C145.784 152.661 145.053 152.559 144.349 152.353C143.843 155.496 143.88 158.346 145.111 159.706C147.667 162.611 153.476 160.046 158.899 159.366C164.322 158.686 187.054 145.376 190.804 143.152C194.554 140.927 197.615 140.091 198.81 138.069Z" fill="white"/>
<path d="M151.711 136.414C151.711 136.414 149.146 137.774 147.115 142.729C145.084 147.683 142.519 156.884 145.065 159.789C147.611 162.693 153.43 160.129 158.853 159.449C164.276 158.769 187.007 145.459 190.758 143.234C194.508 141.01 197.587 140.164 198.782 138.114C199.977 136.065 199.637 128.73 199.803 125.145C199.968 121.56 199.122 105.52 199.122 105.52C199.122 105.52 197.927 101.595 195.878 101.935C195.878 101.935 193.488 100.575 192.982 101.935L191.953 104.693C191.953 104.693 189.737 104.013 189.195 105.208C188.825 106.371 188.596 107.575 188.515 108.793C188.515 108.793 185.96 109.987 185.96 111.55C185.96 113.113 186.465 122.305 186.465 124.86C186.465 127.415 186.125 131.349 186.98 133.05C187.835 134.75 188.69 136.295 188.69 136.295C188.69 136.295 176.225 138.004 170.94 138.004C165.655 138.004 156.435 138.17 154.726 139.024" stroke="#263238" stroke-width="0.919183" stroke-linecap="round" stroke-linejoin="round"/>
<path d="M255.468 144.687C247.278 139.401 230.209 143.492 224.749 143.152C219.289 142.812 204.104 134.447 204.104 134.447C204.104 134.447 207.174 131.377 207.34 129.502C207.505 127.627 207.34 122.507 207.34 119.602C207.34 116.698 208.195 113.802 208.369 111.587C208.544 109.372 205.612 110.898 205.125 111.587C204.637 112.276 203.415 119.087 203.415 119.087C203.415 119.087 201.88 114.492 201.88 113.977C201.88 113.462 201.54 107.147 200.685 104.583C199.83 102.018 197.789 104.583 197.789 104.583C197.615 103.048 197.1 101.825 195.905 101.825C194.71 101.825 193.69 106.099 193.69 106.099C193.69 103.535 192.835 103.709 191.98 104.555C191.125 105.401 191.135 111.045 191.135 111.045L190.105 109.51C188.91 109.169 188.267 111.045 188.267 112.754C188.267 114.464 188.947 119.575 188.947 123.84C188.897 126.015 189.07 128.189 189.462 130.329C190.21 133.316 191.479 136.148 193.212 138.694C196.117 142.959 205.841 148.244 211.816 152.849C217.791 157.454 235.366 165.138 244.07 166.508C252.775 167.878 258.777 171.104 260.79 167.363C262.803 163.622 266.59 145.174 264.715 139.034" fill="white"/>
<path d="M244.034 166.572C252.739 167.933 258.741 171.168 260.754 167.427C262.206 164.771 264.495 154.798 265.065 147.003C263.328 150.45 258.529 159.485 255.469 160.101C251.672 160.855 235.357 156.305 233.454 155.928C231.551 155.551 257.353 154.788 247.876 152.509C238.399 150.229 231.184 151.746 219.381 148.336C207.579 144.926 198.02 142.453 193.139 138.758C196.043 143.023 205.768 148.308 211.743 152.913C217.718 157.518 235.329 165.203 244.034 166.572Z" fill="white"/>
<path opacity="0.6" d="M244.034 166.572C252.739 167.933 258.741 171.168 260.754 167.427C262.206 164.771 264.495 154.798 265.065 147.003C263.328 150.45 258.529 159.485 255.469 160.101C251.672 160.855 235.357 156.305 233.454 155.928C231.551 155.551 257.353 154.788 247.876 152.509C238.399 150.229 231.184 151.746 219.381 148.336C207.579 144.926 198.02 142.453 193.139 138.758C196.043 143.023 205.768 148.308 211.743 152.913C217.718 157.518 235.329 165.203 244.034 166.572Z" fill="white"/>
<path d="M255.468 144.687C247.278 139.401 230.209 143.492 224.749 143.152C219.289 142.812 204.104 134.447 204.104 134.447C204.104 134.447 207.174 131.377 207.34 129.502C207.505 127.627 207.34 122.507 207.34 119.602C207.34 116.698 208.195 113.802 208.369 111.587C208.544 109.372 205.612 110.898 205.125 111.587C204.637 112.276 203.415 119.087 203.415 119.087C203.415 119.087 201.88 114.492 201.88 113.977C201.88 113.462 201.54 107.147 200.685 104.583C199.83 102.018 197.789 104.583 197.789 104.583C197.615 103.048 197.1 101.825 195.905 101.825C194.71 101.825 193.69 106.099 193.69 106.099C193.69 103.535 192.835 103.709 191.98 104.555C191.125 105.401 191.135 111.045 191.135 111.045L190.105 109.51C188.91 109.169 188.267 111.045 188.267 112.754C188.267 114.464 188.947 119.575 188.947 123.84C188.897 126.015 189.07 128.189 189.462 130.329C190.21 133.316 191.479 136.148 193.212 138.694C196.117 142.959 205.841 148.244 211.816 152.849C217.791 157.454 235.366 165.138 244.07 166.508C252.775 167.878 258.777 171.104 260.79 167.363C262.803 163.622 266.59 145.174 264.715 139.034" stroke="#263238" stroke-width="0.919183" stroke-linecap="round" stroke-linejoin="round"/>
<path d="M203.415 119.124C204.336 121.344 204.802 123.725 204.784 126.128" stroke="#263238" stroke-width="0.919183" stroke-linecap="round" stroke-linejoin="round"/>
<path d="M197.789 104.619C198.305 106.807 198.646 109.033 198.809 111.274C198.809 113.499 199.15 118.628 199.15 118.628" stroke="#263238" stroke-width="0.919183" stroke-linecap="round" stroke-linejoin="round"/>
<path d="M193.69 106.164C193.69 106.164 194.37 110.089 194.71 112.598C194.922 114.751 194.981 116.917 194.885 119.078" stroke="#263238" stroke-width="0.919183" stroke-linecap="round" stroke-linejoin="round"/>
<path d="M191.135 111.109C191.135 111.109 191.64 114.179 191.98 115.549C192.232 117.357 192.349 119.182 192.33 121.008" stroke="#263238" stroke-width="0.919183" stroke-linecap="round" stroke-linejoin="round"/>
<path d="M180.206 209.949C178.33 209.088 176.602 207.937 175.086 206.538C173.045 204.489 175.086 199.369 172.328 197.347C169.571 195.324 164.138 194.589 163.136 197.696C162.134 200.803 161.427 202.816 159.377 203.496C157.327 204.176 154.946 204.176 151.187 205.886C147.427 207.596 147.437 213.736 147.437 213.736C154.643 214.698 161.729 216.414 168.578 218.856C178.477 222.606 182.908 220.556 182.908 220.556C182.908 220.556 183.285 213.671 180.206 209.949Z" fill="white"/>
<path d="M176.079 213.552C176.079 213.552 170.242 212.715 168.992 210.629C167.742 208.542 169.819 204.792 166.482 204.792C163.146 204.792 163.569 207.292 160.646 208.129C157.723 208.965 153.136 207.706 155.222 210.215C157.309 212.725 165.655 217.716 170.655 218.552C175.656 219.389 179.415 216.466 176.079 213.552Z" fill="white"/>
<path opacity="0.6" d="M176.079 213.552C176.079 213.552 170.242 212.715 168.992 210.629C167.742 208.542 169.819 204.792 166.482 204.792C163.146 204.792 163.569 207.292 160.646 208.129C157.723 208.965 153.136 207.706 155.222 210.215C157.309 212.725 165.655 217.716 170.655 218.552C175.656 219.389 179.415 216.466 176.079 213.552Z" fill="white"/>
<path d="M180.206 209.949C178.33 209.088 176.602 207.937 175.086 206.538C173.045 204.489 175.086 199.369 172.328 197.347C169.571 195.324 164.138 194.589 163.136 197.696C162.134 200.803 161.427 202.816 159.377 203.496C157.327 204.176 154.946 204.176 151.187 205.886C147.427 207.596 147.437 213.736 147.437 213.736C154.643 214.698 161.729 216.414 168.578 218.856C178.477 222.606 182.908 220.556 182.908 220.556C182.908 220.556 183.285 213.671 180.206 209.949Z" stroke="#263238" stroke-width="0.919183" stroke-linecap="round" stroke-linejoin="round"/>
<path d="M205.593 219.995C210.784 218.659 215.874 216.957 220.824 214.903C227.35 212.256 233.95 209.655 240.247 206.502C249.806 201.722 253.216 194.552 250.826 185.682C248.436 176.812 244.346 169.983 226.928 173.053C209.509 176.123 203.994 186.601 196.595 194.552C187.449 204.342 179.911 209.379 176.455 208.892C172.512 208.34 171.676 215.712 177.135 218.451C185.96 222.863 196.025 222.348 205.593 219.995Z" fill="#263238" stroke="#263238" stroke-width="0.919183" stroke-linecap="round" stroke-linejoin="round"/>
<path d="M179.415 208.542C179.415 208.542 187.752 206.879 196.512 196.869C205.272 186.859 206.513 185.186 206.513 185.186" stroke="white" stroke-width="0.919183" stroke-linecap="round" stroke-linejoin="round"/>
<path d="M242.049 205.858C243.53 204.652 244.902 203.317 246.148 201.869" stroke="white" stroke-width="0.919183" stroke-linecap="round" stroke-linejoin="round"/>
<path d="M214.868 219.389C214.868 219.389 227.792 215.657 238.105 208.781" stroke="white" stroke-width="0.919183" stroke-linecap="round" stroke-linejoin="round"/>
<path d="M111.267 173.181C108.239 172.604 105.144 172.462 102.075 172.758C93.8855 173.439 88.4255 178.559 87.0652 182.998C85.7048 187.438 90.4753 198.698 101.055 206.208C111.635 213.717 122.555 215.399 137.234 219.517C150.241 223.148 163.89 227.422 162.971 227.183C162.042 226.274 161.307 225.187 160.809 223.986C160.312 222.786 160.062 221.497 160.076 220.197C160.269 217.054 162.383 214.6 164.148 213.074C161.39 211.805 156.859 208.938 149.836 202.448C138.53 192.025 126.985 181.592 120.211 176.794" fill="#263238"/>
<path d="M111.267 173.181C108.239 172.604 105.144 172.462 102.075 172.758C93.8855 173.439 88.4255 178.559 87.0652 182.998C85.7048 187.438 90.4753 198.698 101.055 206.208C111.635 213.717 122.555 215.399 137.234 219.517C150.241 223.148 163.89 227.422 162.971 227.183C162.042 226.274 161.307 225.187 160.809 223.986C160.312 222.786 160.062 221.497 160.076 220.197C160.269 217.054 162.383 214.6 164.148 213.074C161.39 211.805 156.859 208.937 149.836 202.448C138.53 192.025 126.985 181.592 120.211 176.794" stroke="#263238" stroke-width="0.919183" stroke-linecap="round" stroke-linejoin="round"/>
<path d="M116.571 177.41C114.677 176.49 113.519 176.012 113.519 176.012" stroke="white" stroke-width="0.919183" stroke-linecap="round" stroke-linejoin="round"/>
<path d="M151.885 202.705C151.885 202.705 133.952 188.522 126.865 183.522C124.621 181.938 122.292 180.477 119.889 179.147" stroke="white" stroke-width="0.919183" stroke-linecap="round" stroke-linejoin="round"/>
<path d="M205.125 218.451C200.685 217.422 200.345 218.451 189.765 218.102C179.186 217.752 167.585 214.011 167.585 214.011C167.585 214.011 166.593 214.158 164.148 213.028C162.383 214.554 160.269 217.008 160.076 220.152C160.062 221.451 160.312 222.74 160.809 223.94C161.307 225.141 162.042 226.228 162.971 227.137C164.81 227.625 166.584 228.057 168.266 228.341C175.775 229.711 184.986 233.121 189.765 235.171C193.619 236.955 197.809 237.895 202.055 237.929C205.805 237.929 204.344 238.489 207.083 237.8C209.822 237.11 208.875 235.199 208.875 235.199C210.042 235.139 211.194 234.91 212.295 234.518C214.335 233.829 213.655 231.099 213.655 231.099C214.995 231.147 216.332 230.932 217.589 230.465C219.676 229.371 219.676 227.073 218.775 224.95C217.414 221.733 209.565 219.471 205.125 218.451Z" fill="white"/>
<path d="M207.082 237.772C208.783 237.349 209.059 236.44 209.031 235.814C208.064 235.966 207.087 236.052 206.108 236.072C200.685 236.072 194.434 231.476 184.002 229.812C178.294 228.893 169.212 227.367 162.162 226.135C162.428 226.485 162.695 226.816 162.971 227.119C164.809 227.606 166.583 228.038 168.265 228.323C175.775 229.693 184.985 233.103 189.765 235.153C193.618 236.937 197.808 237.877 202.054 237.91C205.805 237.901 204.343 238.443 207.082 237.772Z" fill="white"/>
<path opacity="0.6" d="M207.082 237.772C208.783 237.349 209.059 236.44 209.031 235.814C208.064 235.966 207.087 236.052 206.108 236.072C200.685 236.072 194.434 231.476 184.002 229.812C178.294 228.893 169.212 227.367 162.162 226.135C162.428 226.485 162.695 226.816 162.971 227.119C164.809 227.606 166.583 228.038 168.265 228.323C175.775 229.693 184.985 233.103 189.765 235.153C193.618 236.937 197.808 237.877 202.054 237.91C205.805 237.901 204.343 238.443 207.082 237.772Z" fill="white"/>
<path d="M205.125 218.451C200.685 217.422 200.345 218.451 189.765 218.102C179.186 217.752 167.585 214.011 167.585 214.011C167.585 214.011 166.593 214.158 164.148 213.028C162.383 214.554 160.269 217.008 160.076 220.152C160.062 221.451 160.312 222.74 160.809 223.94C161.307 225.141 162.042 226.228 162.971 227.137C164.81 227.625 166.584 228.057 168.266 228.341C175.775 229.711 184.986 233.121 189.765 235.171C193.619 236.955 197.809 237.895 202.055 237.929C205.805 237.929 204.344 238.489 207.083 237.8C209.822 237.11 208.875 235.199 208.875 235.199C210.042 235.139 211.194 234.91 212.295 234.518C214.335 233.829 213.655 231.099 213.655 231.099C214.995 231.147 216.332 230.932 217.589 230.465C219.676 229.371 219.676 227.073 218.775 224.95C217.414 221.733 209.565 219.471 205.125 218.451Z" stroke="#263238" stroke-width="0.919183" stroke-linecap="round" stroke-linejoin="round"/>
<path d="M213.655 231.09C212.086 229.69 210.355 228.483 208.499 227.496" stroke="#263238" stroke-width="0.919183" stroke-linecap="round" stroke-linejoin="round"/>
<path d="M208.875 235.171C208.875 235.171 205.805 233.121 205.125 231.761" stroke="#263238" stroke-width="0.919183" stroke-linecap="round" stroke-linejoin="round"/>
<path d="M204.104 237.524C202.8 236.831 201.722 235.778 200.997 234.491" stroke="#263238" stroke-width="0.919183" stroke-linecap="round" stroke-linejoin="round"/>
<path d="M200.005 237.901C198.407 237.591 196.962 236.749 195.905 235.511" stroke="#263238" stroke-width="0.919183" stroke-linecap="round" stroke-linejoin="round"/>
<path d="M196.447 21.5162C196.447 21.5162 189.958 27.4817 190.482 33.9711C191.006 40.4605 188.919 44.0821 189.701 48.7699C190.482 53.4578 191.539 62.5577 193.377 64.8648C195.216 67.172 195.455 69.8008 197.275 71.0969C199.095 72.3929 205.327 72.3929 206.623 70.3156C207.919 68.2382 221.679 60.2046 222.718 57.3367C223.756 54.4689 223.499 53.7059 223.499 53.7059C223.499 53.7059 232.581 48.2552 231.284 43.5949C229.988 38.9347 226.348 37.1055 224.271 38.6681C222.194 40.2307 221.936 41.0028 221.936 41.0028C221.936 41.0028 216.504 37.4272 217.543 34.0538C218.581 30.6804 221.826 29.5222 220.787 25.6249C219.749 21.7276 211.982 23.6762 203.718 24.3105C197.201 24.7884 199.343 19.1263 196.447 21.5162Z" fill="white"/>
<path d="M231.239 43.5765C229.943 38.9071 226.303 37.0871 224.225 38.6497C222.148 40.2123 221.89 40.9844 221.89 40.9844C221.89 40.9844 216.458 37.4088 217.497 34.0354C218.535 30.662 221.78 29.5039 220.742 25.6065C219.703 21.7092 214.583 17.4993 206.32 18.1336C204.417 18.2806 203.038 18.4277 201.963 18.6207C205.41 18.345 211.366 18.3634 214.482 21.2128C219.078 25.3859 214.868 29.559 213.728 33.7413C212.588 37.9236 215.245 43.6041 214.482 47.7772C213.719 51.9503 209.932 54.9836 209.932 60.2965C209.932 65.6094 210.309 67.5121 205.336 70.9222L204.362 71.6208C205.22 71.4583 205.992 70.9956 206.54 70.3156C207.836 68.2382 221.596 60.2046 222.635 57.3367C223.674 54.4689 223.416 53.7059 223.416 53.7059C223.416 53.7059 232.535 48.2552 231.239 43.5765Z" fill="white"/>
<path opacity="0.6" d="M231.239 43.5765C229.943 38.9071 226.303 37.0871 224.225 38.6497C222.148 40.2123 221.89 40.9844 221.89 40.9844C221.89 40.9844 216.458 37.4088 217.497 34.0354C218.535 30.662 221.78 29.5039 220.742 25.6065C219.703 21.7092 214.583 17.4993 206.32 18.1336C204.417 18.2806 203.038 18.4277 201.963 18.6207C205.41 18.345 211.366 18.3634 214.482 21.2128C219.078 25.3859 214.868 29.559 213.728 33.7413C212.588 37.9236 215.245 43.6041 214.482 47.7772C213.719 51.9503 209.932 54.9836 209.932 60.2965C209.932 65.6094 210.309 67.5121 205.336 70.9222L204.362 71.6208C205.22 71.4583 205.992 70.9956 206.54 70.3156C207.836 68.2382 221.596 60.2046 222.635 57.3367C223.674 54.4689 223.416 53.7059 223.416 53.7059C223.416 53.7059 232.535 48.2552 231.239 43.5765Z" fill="white"/>
<path d="M196.447 21.5162C196.447 21.5162 189.958 27.4817 190.482 33.9711C191.006 40.4605 188.919 44.0821 189.701 48.7699C190.482 53.4578 191.539 62.5577 193.377 64.8648C195.216 67.172 195.455 69.8008 197.275 71.0969C199.095 72.3929 205.327 72.3929 206.623 70.3156C207.919 68.2382 221.679 60.2046 222.718 57.3367C223.756 54.4689 223.499 53.7059 223.499 53.7059C223.499 53.7059 232.581 48.2552 231.284 43.5949C229.988 38.9347 226.348 37.1055 224.271 38.6681C222.194 40.2307 221.936 41.0028 221.936 41.0028C221.936 41.0028 216.504 37.4272 217.543 34.0538C218.581 30.6804 221.826 29.5222 220.787 25.6249C219.749 21.7276 211.982 23.6762 203.718 24.3105C197.201 24.7884 199.343 19.1263 196.447 21.5162Z" stroke="#263238" stroke-width="0.919183" stroke-linecap="round" stroke-linejoin="round"/>
<path d="M202.836 44.3762C202.836 44.3762 205.676 48.2644 210.337 44.3762" stroke="#263238" stroke-width="0.919183" stroke-linecap="round" stroke-linejoin="round"/>
<path d="M191.254 43.8339C191.494 44.1478 191.797 44.4067 192.145 44.5931C192.493 44.7794 192.877 44.889 193.271 44.9142C193.665 44.9395 194.059 44.8799 194.428 44.7396C194.797 44.5992 195.132 44.3812 195.409 44.1005" stroke="#263238" stroke-width="0.919183" stroke-linecap="round" stroke-linejoin="round"/>
<path d="M200.602 55.5259C198.525 56.0498 195.675 55.2685 195.409 54.4872C195.142 53.7059 196.714 43.5765 196.714 43.5765L194.876 40.4605C194.876 40.4605 193.313 38.1258 191.199 39.6884" stroke="#263238" stroke-width="0.919183" stroke-linecap="round" stroke-linejoin="round"/>
<path d="M195.933 60.1954L202.073 60.1678" stroke="#263238" stroke-width="0.919183" stroke-linecap="round" stroke-linejoin="round"/>
<path d="M212.028 40.2031C210.293 39.0895 208.284 38.4763 206.223 38.4309C204.161 38.3855 202.128 38.9097 200.345 39.9458" stroke="#263238" stroke-width="0.919183" stroke-linecap="round" stroke-linejoin="round"/>
<path d="M229.226 44.4957C229.226 44.4957 228.141 41.683 225.972 42.5471C223.802 43.4111 223.37 46.2238 223.37 46.2238C223.37 46.2238 225.108 45.5712 225.108 47.7404C225.108 49.9097 223.159 49.0365 223.159 49.0365" stroke="#263238" stroke-width="0.919183" stroke-linecap="round" stroke-linejoin="round"/>
</svg>
