<svg width="185" height="31" viewBox="0 0 185 31" fill="none" xmlns="http://www.w3.org/2000/svg">
<path d="M24.6005 29.6067V19.0468C24.6005 17.6128 24.3789 16.5959 23.9357 15.9962C23.5185 15.3965 22.8014 15.0967 21.7846 15.0967C21.1327 15.0967 20.5721 15.227 20.1028 15.4878C19.6596 15.7485 19.3206 16.1396 19.0859 16.6611C18.8513 17.1826 18.7339 17.8083 18.7339 18.5384V29.6067H12.2416V18.5775C12.2416 17.352 12.02 16.4655 11.5767 15.918C11.1595 15.3704 10.4556 15.0967 9.46475 15.0967C8.50002 15.0967 7.75692 15.3965 7.23545 15.9962C6.71398 16.5959 6.45324 17.4433 6.45324 18.5384V29.6067H0V9.85586H6.45324L6.41413 11.8114C7.50922 10.273 9.12579 9.50386 11.2638 9.50386C13.7669 9.50386 15.5269 10.5077 16.5438 12.5154C18.0039 10.5077 20.181 9.50386 23.0752 9.50386C25.5783 9.50386 27.5338 10.3382 28.9418 12.0069C30.3498 13.6757 31.0538 15.9962 31.0538 18.9686V29.6067H24.6005Z" fill="white"/>
<path d="M46.2892 29.9978C42.9517 29.9978 40.2922 29.0461 38.3106 27.1427C36.3551 25.2133 35.3773 22.7363 35.3773 19.7117C35.3773 16.7393 36.3811 14.3014 38.3888 12.398C40.4226 10.4686 43.0039 9.50386 46.1327 9.50386C49.7048 9.50386 52.5077 10.6641 54.5415 12.9847C56.5752 15.2792 57.3705 18.2125 56.9272 21.7846L42.0652 21.7455C42.2217 22.658 42.691 23.4142 43.4732 24.0139C44.2815 24.5875 45.2201 24.8743 46.2892 24.8743C48.1143 24.8743 49.6396 24.2485 50.8651 22.997L55.8321 25.8521C54.9195 27.0775 53.6419 28.0814 51.9993 28.8636C50.3567 29.6197 48.4533 29.9978 46.2892 29.9978ZM42.0652 17.4433H50.5522C50.3436 16.4525 49.8482 15.6833 49.066 15.1358C48.3099 14.5622 47.3712 14.2753 46.25 14.2753C45.5461 14.2753 44.8942 14.4057 44.2945 14.6665C43.7209 14.9272 43.2385 15.3053 42.8474 15.8007C42.4563 16.27 42.1956 16.8175 42.0652 17.4433Z" fill="white"/>
<path d="M70.2801 29.9196C67.4902 29.9196 65.2088 28.9679 63.4358 27.0645C61.6628 25.1611 60.7762 22.7232 60.7762 19.7508C60.7762 16.7784 61.6628 14.3405 63.4358 12.4372C65.2088 10.5338 67.4902 9.58208 70.2801 9.58208C73.0179 9.58208 75.182 10.5207 76.7725 12.398V2.93329H83.2257V29.6458H76.7725L76.8507 27.0254C75.1298 28.9548 72.9396 29.9196 70.2801 29.9196ZM72.2747 24.3659C73.6827 24.3659 74.843 23.9226 75.7556 23.0361C76.6682 22.1235 77.1245 20.9763 77.1245 19.5944C77.1245 18.2907 76.6551 17.2086 75.7165 16.3482C74.8039 15.4878 73.6567 15.0576 72.2747 15.0576C70.8407 15.0576 69.6674 15.4747 68.7548 16.3091C67.8683 17.1435 67.425 18.2385 67.425 19.5944C67.425 21.0024 67.8683 22.1496 68.7548 23.0361C69.6674 23.9226 70.8407 24.3659 72.2747 24.3659Z" fill="white"/>
<path d="M92.1979 6.6879C91.0767 6.6879 90.1381 6.38805 89.3819 5.78836C88.6258 5.16259 88.2477 4.35431 88.2477 3.36351C88.2477 2.37271 88.6258 1.56442 89.3819 0.938653C90.1381 0.312884 91.0767 0 92.1979 0C93.293 0 94.2186 0.312884 94.9747 0.938653C95.7309 1.56442 96.109 2.37271 96.109 3.36351C96.109 4.35431 95.7309 5.16259 94.9747 5.78836C94.2186 6.38805 93.293 6.6879 92.1979 6.6879ZM89.0299 29.6067V9.89497H95.4832V29.6067H89.0299Z" fill="white"/>
<path d="M115.178 29.6067V19.829C115.178 18.1864 114.904 17 114.357 16.27C113.835 15.5138 112.949 15.1358 111.697 15.1358C108.96 15.1358 107.591 16.6089 107.591 19.5553V29.6067H101.137V9.85586H107.591V12.0069C108.216 11.2769 109.025 10.7033 110.016 10.2861C111.032 9.86889 112.114 9.6603 113.262 9.6603C118.972 9.6603 121.827 12.9847 121.827 19.6335V29.6067H115.178Z" fill="white"/>
<path d="M148.77 19.7117C148.77 22.5798 147.74 24.9916 145.68 26.9472C143.647 28.9027 140.909 29.8805 137.467 29.8805C134.025 29.8805 131.275 28.9027 129.215 26.9472C127.181 24.9916 126.164 22.5798 126.164 19.7117C126.164 16.8958 127.194 14.497 129.254 12.5154C131.34 10.5338 134.091 9.54297 137.506 9.54297C140.922 9.54297 143.647 10.5338 145.68 12.5154C147.74 14.4709 148.77 16.8697 148.77 19.7117ZM142.2 19.6335C142.2 18.382 141.769 17.2999 140.909 16.3873C140.074 15.4747 138.94 15.0184 137.506 15.0184C136.072 15.0184 134.925 15.4747 134.065 16.3873C133.204 17.2738 132.774 18.3559 132.774 19.6335C132.774 20.9632 133.191 22.0844 134.025 22.997C134.886 23.8835 136.033 24.3268 137.467 24.3268C138.927 24.3268 140.074 23.8835 140.909 22.997C141.769 22.0844 142.2 20.9632 142.2 19.6335Z" fill="white"/>
<path d="M160.088 30.78L149.841 11.4985L155.864 9.03453L159.658 16.5046C160.127 17.4172 160.479 18.1603 160.714 18.7339L167.089 9.15187L173.464 18.7339L174.677 16.3482L178.47 9.07364L184.102 11.4985L174.051 30.78L166.972 19.3206L160.088 30.78Z" fill="white"/>
</svg>
