<svg width="123" height="61" viewBox="0 0 123 61" fill="none" xmlns="http://www.w3.org/2000/svg">
<path d="M45.7248 39.4933C46.0708 36.9544 42.4883 34.8612 39.797 34.6443C38.5129 34.5446 37.1761 34.7381 35.9624 34.3159C33.3239 33.3954 32.2743 29.9888 29.7003 28.9041C27.7772 28.0949 25.5608 28.8161 23.6963 29.7542C21.8317 30.6924 19.9906 31.8768 17.9091 32.0058C16.0974 32.123 14.1273 31.4194 12.5442 32.3341C11.3715 32.9967 10.7441 34.357 9.65355 35.1602C8.56297 35.9635 7.20268 36.1101 5.88342 36.1863C4.56417 36.2626 3.19215 36.2684 1.99016 36.8196C0.788177 37.3707 -0.208593 38.6431 0.0376676 39.9447L45.7248 39.4933Z" fill="#F5F5F5"/>
<path d="M65.3669 50.1528C65.3669 50.188 64.7161 49.9241 63.52 49.6603C61.8291 49.2915 60.0863 49.224 58.372 49.4609C55.8248 49.7964 53.4211 50.8338 51.4298 52.4571C48.9914 54.4446 47.27 57.1749 46.528 60.2319V60.3198L46.3814 60.9062L46.1703 60.3785C44.9771 57.4789 42.9328 55.0092 40.307 53.2955C38.1579 51.8938 35.6846 51.068 33.1244 50.8974C31.404 50.7724 29.6747 50.9309 28.0057 51.3665C26.833 51.6773 26.1998 51.9528 26.1881 51.9177C26.328 51.829 26.4775 51.7562 26.6337 51.7007C27.0666 51.5137 27.5112 51.355 27.9647 51.2258C30.0543 50.6114 32.2511 50.4504 34.408 50.7538C36.5649 51.0572 38.6321 51.8178 40.4712 52.9848C43.1754 54.7181 45.28 57.2424 46.4987 60.2143L46.141 60.2436V60.1556C46.9011 57.018 48.6757 54.219 51.1894 52.1932C53.2371 50.5489 55.7055 49.5128 58.3133 49.2029C60.0577 48.9857 61.8273 49.0951 63.5317 49.5254C63.9923 49.6375 64.4448 49.7805 64.8861 49.9534C65.0529 50.0029 65.2141 50.0697 65.3669 50.1528Z" fill="white"/>
<path d="M122.488 15.993C122.488 16.0282 122.124 15.8933 121.462 15.7584C120.535 15.568 119.583 15.5402 118.647 15.6764C117.258 15.8642 115.949 16.4347 114.865 17.3239C113.537 18.413 112.604 19.9088 112.209 21.5807V21.6276L112.063 22.1847L111.852 21.657C111.203 20.0783 110.091 18.7332 108.662 17.7989C107.495 17.0351 106.154 16.5811 104.763 16.4796C103.822 16.405 102.876 16.4823 101.96 16.7083C101.309 16.8666 100.963 17.0073 100.946 16.978C101.019 16.9215 101.1 16.8761 101.186 16.8432C101.424 16.7352 101.669 16.6432 101.919 16.5676C103.07 16.2145 104.284 16.113 105.477 16.2698C106.671 16.4266 107.817 16.8381 108.838 17.4764C110.339 18.4376 111.508 19.8379 112.186 21.4869L111.834 21.5162V21.4693C112.253 19.7245 113.241 18.169 114.643 17.0484C115.593 16.2937 116.706 15.771 117.894 15.5217C119.082 15.2723 120.311 15.3032 121.485 15.6119C121.74 15.6756 121.989 15.7599 122.23 15.864C122.322 15.8935 122.409 15.937 122.488 15.993Z" fill="white"/>
<path d="M82.494 8.00124C82.494 8.00124 82.1422 8.40581 81.503 9.12114C80.6135 10.142 79.8094 11.2343 79.0991 12.387C76.7205 16.1983 75.4721 20.6062 75.499 25.0988C75.502 25.1515 75.502 25.2043 75.499 25.2571H75.1296C74.7559 22.845 73.9621 20.5172 72.7843 18.3794C71.8395 16.6324 70.6554 15.026 69.2663 13.6066C68.329 12.6505 67.3021 11.7866 66.1997 11.0267C65.4199 10.4814 64.9684 10.2117 64.986 10.1824C65.1075 10.2229 65.2237 10.2781 65.3319 10.3466C65.5489 10.4756 65.8831 10.6339 66.2818 10.9329C67.427 11.661 68.4904 12.5102 69.4539 13.4659C72.6838 16.6413 74.802 20.7748 75.4931 25.2512L75.1237 25.2805V25.0988C75.09 20.5432 76.3904 16.0774 78.8645 12.2522C79.601 11.0985 80.4494 10.0203 81.3975 9.03319C81.72 8.67553 82.0132 8.44686 82.1949 8.25337C82.3767 8.05988 82.4822 7.98952 82.494 8.00124Z" fill="white"/>
<path d="M101.283 52.9251L98.6407 48.8184L103.105 50.8717L104.63 46L105.742 50.6956L110.669 48.8737L107.735 52.9251L112.078 55.5623H107.091L107.619 60.6102L104.454 56.7954L101.223 60.6102L101.927 55.6831L97 55.4466L101.283 52.9251Z" fill="#F2C94C"/>
<path d="M4.28291 6.92513L1.64069 2.81837L6.10478 4.87174L7.62972 0L8.74197 4.69561L13.6691 2.87372L10.735 6.92513L15.0783 9.56231H10.0908L10.6192 14.6102L7.45357 10.7954L4.22251 14.6102L4.92711 9.68309L0 9.44655L4.28291 6.92513Z" fill="#F2C94C"/>
</svg>
