<svg width="24" height="25" viewBox="0 0 24 25" fill="none" xmlns="http://www.w3.org/2000/svg">
<path d="M7.5 6.5L7.6819 5.77239C7.28006 5.67193 6.87285 5.91625 6.77239 6.3181L7.5 6.5ZM7.5 18.5L6.77239 18.6819C6.87285 19.0837 7.28006 19.3281 7.6819 19.2276L7.5 18.5ZM17.5 12.5L18.124 12.916C18.292 12.6641 18.292 12.3359 18.124 12.084L17.5 12.5ZM7.5 18.5C8.22761 18.3181 8.22765 18.3183 8.22768 18.3184C8.22769 18.3184 8.22773 18.3186 8.22775 18.3187C8.22779 18.3188 8.22782 18.319 8.22785 18.3191C8.2279 18.3193 8.22792 18.3194 8.22791 18.3193C8.22789 18.3192 8.22775 18.3187 8.22749 18.3176C8.22698 18.3155 8.22601 18.3114 8.2246 18.3054C8.22178 18.2934 8.21723 18.2736 8.21119 18.246C8.19911 18.1908 8.18108 18.1044 8.15903 17.9868C8.11494 17.7516 8.0548 17.3917 7.99421 16.907C7.87304 15.9376 7.75 14.4687 7.75 12.5H6.25C6.25 14.5313 6.37696 16.0624 6.50579 17.093C6.5702 17.6083 6.63506 17.9984 6.68472 18.2632C6.70955 18.3956 6.73058 18.4967 6.74584 18.5665C6.75347 18.6014 6.75967 18.6285 6.76417 18.6477C6.76643 18.6573 6.76826 18.665 6.76964 18.6707C6.77033 18.6735 6.77091 18.6759 6.77137 18.6778C6.7716 18.6787 6.7718 18.6795 6.77197 18.6802C6.77205 18.6805 6.77213 18.6809 6.7722 18.6811C6.77224 18.6813 6.77229 18.6815 6.7723 18.6815C6.77235 18.6817 6.77239 18.6819 7.5 18.5ZM7.75 12.5C7.75 10.5313 7.87304 9.06241 7.99421 8.09303C8.0548 7.6083 8.11494 7.24837 8.15903 7.01322C8.18108 6.89564 8.19911 6.80924 8.21119 6.75402C8.21723 6.72641 8.22178 6.7066 8.2246 6.69458C8.22601 6.68857 8.22698 6.68451 8.22749 6.6824C8.22775 6.68134 8.22789 6.68077 8.22791 6.68069C8.22792 6.68065 8.2279 6.68073 8.22785 6.68093C8.22782 6.68103 8.22779 6.68116 8.22775 6.68132C8.22773 6.68141 8.22769 6.68155 8.22768 6.68159C8.22765 6.68174 8.22761 6.6819 7.5 6.5C6.77239 6.3181 6.77235 6.31827 6.7723 6.31846C6.77229 6.31853 6.77224 6.31872 6.7722 6.31886C6.77213 6.31914 6.77205 6.31946 6.77197 6.3198C6.7718 6.32049 6.7716 6.32131 6.77137 6.32224C6.77091 6.32411 6.77033 6.32647 6.76964 6.32932C6.76826 6.33502 6.76643 6.34268 6.76417 6.35229C6.75967 6.37152 6.75347 6.39859 6.74584 6.43348C6.73058 6.50326 6.70955 6.60436 6.68472 6.73678C6.63506 7.00163 6.5702 7.3917 6.50579 7.90697C6.37696 8.93759 6.25 10.4687 6.25 12.5H7.75ZM7.5 6.5C7.3181 7.22761 7.31792 7.22756 7.31774 7.22752C7.3177 7.22751 7.31753 7.22747 7.31744 7.22744C7.31725 7.22739 7.31709 7.22735 7.31696 7.22732C7.3167 7.22726 7.31657 7.22722 7.31655 7.22722C7.31652 7.22721 7.31698 7.22733 7.31792 7.22757C7.3198 7.22806 7.32362 7.22905 7.32936 7.23059C7.34084 7.23366 7.36 7.2389 7.38673 7.24653C7.44019 7.26181 7.52392 7.2867 7.63694 7.32316C7.86296 7.39607 8.20623 7.51527 8.65896 7.69636C9.56433 8.0585 10.9081 8.66842 12.6279 9.65118L13.3721 8.34882C11.5919 7.33158 10.1857 6.6915 9.21604 6.30364C8.73127 6.10973 8.35579 5.97893 8.09744 5.89559C7.96827 5.85393 7.8684 5.82413 7.79881 5.80425C7.76402 5.79431 7.7368 5.78684 7.71727 5.78162C7.70751 5.779 7.69967 5.77695 7.69377 5.77542C7.69082 5.77466 7.68835 5.77403 7.68638 5.77352C7.68539 5.77327 7.68452 5.77305 7.68377 5.77286C7.6834 5.77277 7.68306 5.77268 7.68275 5.7726C7.68259 5.77257 7.68238 5.77251 7.6823 5.77249C7.6821 5.77244 7.6819 5.77239 7.5 6.5ZM12.6279 9.65118C14.3344 10.6263 15.4142 11.4697 16.058 12.055C16.3799 12.3476 16.5932 12.5761 16.7214 12.7246C16.7856 12.7989 16.8286 12.8533 16.8533 12.8858C16.8657 12.902 16.8735 12.9129 16.8772 12.918C16.879 12.9205 16.8798 12.9217 16.8796 12.9214C16.8795 12.9212 16.8791 12.9207 16.8785 12.9198C16.8782 12.9193 16.8778 12.9188 16.8774 12.9182C16.8772 12.9179 16.877 12.9175 16.8767 12.9172C16.8766 12.917 16.8764 12.9167 16.8764 12.9166C16.8762 12.9163 16.876 12.916 17.5 12.5C18.124 12.084 18.1238 12.0837 18.1236 12.0833C18.1235 12.0832 18.1233 12.0829 18.1232 12.0827C18.1229 12.0822 18.1226 12.0818 18.1222 12.0813C18.1216 12.0803 18.1208 12.0792 18.12 12.078C18.1184 12.0757 18.1166 12.073 18.1145 12.0699C18.1103 12.0638 18.105 12.0563 18.0987 12.0474C18.0859 12.0295 18.0689 12.0062 18.0471 11.9775C18.0035 11.9202 17.941 11.8417 17.8567 11.7442C17.6881 11.5489 17.4326 11.2774 17.067 10.945C16.3358 10.2803 15.1656 9.3737 13.3721 8.34882L12.6279 9.65118ZM17.5 12.5C16.876 12.084 16.8762 12.0837 16.8764 12.0834C16.8764 12.0833 16.8766 12.083 16.8767 12.0828C16.877 12.0825 16.8772 12.0821 16.8774 12.0818C16.8778 12.0812 16.8782 12.0807 16.8785 12.0802C16.8791 12.0793 16.8795 12.0788 16.8796 12.0786C16.8798 12.0783 16.879 12.0795 16.8772 12.082C16.8735 12.0871 16.8657 12.098 16.8533 12.1142C16.8286 12.1467 16.7856 12.2011 16.7214 12.2754C16.5932 12.4239 16.3799 12.6524 16.058 12.945C15.4142 13.5303 14.3344 14.3737 12.6279 15.3488L13.3721 16.6512C15.1656 15.6263 16.3358 14.7197 17.067 14.055C17.4326 13.7226 17.6881 13.4511 17.8567 13.2558C17.941 13.1583 18.0035 13.0798 18.0471 13.0225C18.0689 12.9938 18.0859 12.9705 18.0987 12.9526C18.105 12.9437 18.1103 12.9362 18.1145 12.9301C18.1166 12.927 18.1184 12.9243 18.12 12.922C18.1208 12.9208 18.1216 12.9197 18.1222 12.9187C18.1226 12.9182 18.1229 12.9178 18.1232 12.9173C18.1233 12.9171 18.1235 12.9168 18.1236 12.9167C18.1238 12.9163 18.124 12.916 17.5 12.5ZM12.6279 15.3488C10.9081 16.3316 9.56433 16.9415 8.65896 17.3036C8.20623 17.4847 7.86296 17.6039 7.63694 17.6768C7.52392 17.7133 7.44019 17.7382 7.38673 17.7535C7.36 17.7611 7.34084 17.7663 7.32936 17.7694C7.32362 17.7709 7.3198 17.7719 7.31792 17.7724C7.31698 17.7727 7.31652 17.7728 7.31655 17.7728C7.31657 17.7728 7.3167 17.7727 7.31696 17.7727C7.31709 17.7726 7.31725 17.7726 7.31744 17.7726C7.31753 17.7725 7.3177 17.7725 7.31774 17.7725C7.31792 17.7724 7.3181 17.7724 7.5 18.5C7.6819 19.2276 7.6821 19.2276 7.6823 19.2275C7.68238 19.2275 7.68259 19.2274 7.68275 19.2274C7.68306 19.2273 7.6834 19.2272 7.68377 19.2271C7.68452 19.2269 7.68539 19.2267 7.68638 19.2265C7.68835 19.226 7.69082 19.2253 7.69377 19.2246C7.69967 19.2231 7.70751 19.221 7.71727 19.2184C7.7368 19.2132 7.76402 19.2057 7.79881 19.1958C7.8684 19.1759 7.96827 19.1461 8.09744 19.1044C8.35579 19.0211 8.73127 18.8903 9.21604 18.6964C10.1857 18.3085 11.5919 17.6684 13.3721 16.6512L12.6279 15.3488Z" fill="white"/>
</svg>
