<svg width="126" height="97" viewBox="0 0 126 97" fill="none" xmlns="http://www.w3.org/2000/svg">
<path d="M105.822 24.4911C104.236 21.7619 102.319 19.2389 100.114 16.9795C108.809 32.6401 102.181 50.9382 86.6266 59.9894C70.8763 69.1547 51.9047 65.3295 42.7394 49.5792C38.4296 42.1917 37.1665 33.4162 39.2179 25.1131C35.9543 30.9731 34.2858 37.587 34.3792 44.2938C34.4726 51.0006 36.3246 57.5655 39.75 63.3323C43.1755 69.0991 48.0545 73.8659 53.8995 77.1563C59.7444 80.4467 66.3506 82.1454 73.0578 82.0827C79.765 82.0201 86.3382 80.1982 92.1207 76.7991C97.9031 73.4001 102.692 68.543 106.009 62.7131C109.326 56.8833 111.055 50.285 111.023 43.5776C110.992 36.8702 109.2 30.2887 105.827 24.4907L105.822 24.4911Z" fill="#455A64"/>
<path d="M86.9839 65.8035C86.9265 66.0665 88.2684 66.4419 89.1779 67.6949C90.0875 68.9479 90.0841 70.3467 90.3457 70.3639C90.4683 70.3773 90.6574 70.0212 90.678 69.3942C90.6886 68.5732 90.4302 67.7711 89.9423 67.1107C89.4625 66.4536 88.7766 65.9761 87.9939 65.7542C87.3955 65.5995 87.0017 65.6837 86.9839 65.8035Z" fill="#263238"/>
<path d="M92.2468 62.484C91.9965 62.7772 92.8003 63.8485 93.4069 65.2996C94.0135 66.7507 94.265 68.0614 94.6497 68.0835C94.8288 68.086 95.0188 67.7266 95.0728 67.1102C95.1116 66.3069 94.9668 65.5054 94.6495 64.7665C94.3322 64.0275 93.8508 63.3705 93.2417 62.8454C92.7537 62.4624 92.3645 62.3526 92.2468 62.484Z" fill="#263238"/>
<path d="M74.836 66.3859C74.9088 66.3654 74.757 65.5407 74.4541 64.2217C74.3706 63.8903 74.3215 63.5663 74.5194 63.432C74.7173 63.2977 75.1163 63.2787 75.5359 63.2997C76.4178 63.3168 77.3467 63.3394 78.3118 63.3491C82.2546 63.3838 85.4526 63.2941 85.4472 63.1251C85.4417 62.956 82.2503 62.7985 78.3102 62.7733L75.534 62.7705C75.1262 62.7837 74.6399 62.7277 74.222 63.0665C74.1262 63.1555 74.0519 63.2652 74.005 63.3873C73.9581 63.5094 73.9396 63.6406 73.9512 63.7708C73.9689 63.9651 74.0112 64.1563 74.0773 64.3398C74.4821 65.6132 74.7649 66.3999 74.836 66.3859Z" fill="#263238"/>
<g opacity="0.1">
<path d="M85.9885 74.2771C86.0386 73.7869 85.959 73.2921 85.7577 72.8423C85.4755 72.1684 85.0445 71.567 84.497 71.0832C83.9494 70.5995 83.2995 70.2459 82.5959 70.0489C82.04 69.8968 81.3728 69.8777 80.9634 70.2827C80.7991 70.4746 80.6913 70.7085 80.6522 70.9581C80.6131 71.2078 80.6441 71.4634 80.7418 71.6964L81.1361 72.7544C81.5887 73.5971 82.1978 74.3458 82.9308 74.9602C83.5381 75.4871 84.486 75.8102 85.2044 75.4523C85.4193 75.333 85.6025 75.1641 85.7389 74.9597C85.8753 74.7553 85.9608 74.5213 85.9885 74.2771Z" fill="black"/>
</g>
<g opacity="0.1">
<path d="M78.2338 72.8169C78.3996 72.5447 78.4782 72.2283 78.459 71.9101C78.4398 71.5919 78.3237 71.2873 78.1263 71.037C77.9289 70.7868 77.6596 70.6029 77.3547 70.5101C77.0498 70.4174 76.7237 70.4201 76.4204 70.518C75.9352 70.7012 75.5337 71.0554 75.2915 71.5139C75.0756 71.8683 74.9578 72.2737 74.9499 72.6885C74.9365 72.9475 74.9943 73.2051 75.117 73.4335C75.2398 73.6618 75.4228 73.8521 75.6462 73.9837C75.8696 74.1152 76.1249 74.183 76.3841 74.1796C76.6433 74.1762 76.8967 74.1018 77.1166 73.9645C77.654 73.6649 78.0509 73.1646 78.2204 72.5731" fill="black"/>
</g>
<path d="M86.147 67.3811C85.8993 67.5039 85.7094 67.7185 85.6176 67.9792C85.5257 68.2399 85.5393 68.5261 85.6554 68.777C85.7064 68.9022 85.782 69.0158 85.8777 69.1113C85.9734 69.2067 86.0873 69.282 86.2126 69.3327C86.3379 69.3834 86.4721 69.4084 86.6073 69.4063C86.7424 69.4043 86.8758 69.3751 86.9995 69.3206C87.2475 69.1984 87.438 68.9842 87.5304 68.7237C87.6229 68.4631 87.6099 68.1767 87.4943 67.9256C87.4429 67.8003 87.3669 67.6867 87.2709 67.5912C87.1749 67.4958 87.0608 67.4205 86.9353 67.3697C86.8097 67.319 86.6753 67.2939 86.54 67.2958C86.4046 67.2978 86.271 67.3268 86.147 67.3811Z" fill="#263238"/>
<path d="M82.3916 63.9436C82.3916 63.9764 80.7707 63.9766 78.7493 63.9555C76.7279 63.9345 75.1093 63.8869 75.1078 63.8467C75.1063 63.8066 76.7389 63.8078 78.7501 63.8348C80.7613 63.8618 82.3901 63.9035 82.3916 63.9436Z" fill="white"/>
<path d="M95.0972 63.8075C94.8659 63.5267 94.6667 63.2208 94.5037 62.8955C94.3062 62.5897 94.1427 62.2631 94.0163 61.9217C94.2488 62.2017 94.448 62.5077 94.6099 62.8337C94.8086 63.1389 94.9721 63.4655 95.0972 63.8075Z" fill="white"/>
<path d="M90.3889 46.5201C89.3219 49.2026 86.9766 51.1755 84.3998 51.5529C83.0704 51.7144 81.7221 51.5118 80.4988 50.9666C79.2756 50.4215 78.2234 49.5543 77.4546 48.4578C77.8119 50.0683 76.0202 51.6838 74.7117 50.9289C75.215 55.6849 72.5325 60.6422 68.5516 62.2828C64.5706 63.9235 59.6989 62.0815 57.3888 58.0654C54.1377 58.5988 50.6852 56.6209 49.1401 53.3396C48.3346 54.4641 47.1373 55.2464 45.7839 55.5324C44.4304 55.8183 43.019 55.5873 41.8274 54.8846C41.7673 56.3561 41.2351 57.7691 40.3097 58.9148C39.3844 60.0604 38.1148 60.8778 36.6889 61.2461C33.9964 61.8349 31.1529 60.5817 29.1649 58.4478C27.177 56.3139 25.954 53.415 25.2393 50.3954C21.2131 51.7341 16.5175 49.9877 13.976 46.193C12.5723 47.2624 10.9001 47.9226 9.14447 48.1004C7.16658 48.3118 4.98738 47.3505 3.19067 46.3943C3.19067 46.3943 0.170993 44.7486 -0.00012207 44.7888L2.86857 44.658C4.73071 44.3208 4.97731 42.7606 6.02413 41.9403C6.42588 41.6168 6.89871 41.3935 7.40369 41.2885C7.90867 41.1836 8.43135 41.2001 8.92869 41.3367C9.42604 41.4734 9.88381 41.7262 10.2643 42.0743C10.6448 42.4225 10.9372 42.8561 11.1173 43.3394C12.0736 40.3851 13.3469 38.4274 15.9639 37.3705C17.2749 36.8483 18.6935 36.6537 20.0967 36.8037C21.4999 36.9537 22.8453 37.4436 24.0164 38.2311C25.4356 34.381 30.1916 32.695 33.2818 34.985C34.4594 28.1856 39.5728 22.4885 45.597 21.2555C51.6213 20.0225 58.179 23.3441 61.3748 29.2425C62.3291 28.9486 63.3443 28.913 64.3168 29.1394C65.2893 29.3657 66.1844 29.8459 66.9109 30.5309C67.6847 31.2947 68.2825 32.2183 68.6624 33.2371C69.0422 34.2559 69.1951 35.3454 69.1102 36.4294C72.6332 34.8138 76.5688 36.374 79.5633 39.0666C81.4959 35.4782 90.1322 36.2381 92.1755 42.3681C92.1755 42.3681 92.3215 44.4667 96.4987 43.5759C96.4836 43.586 95.5425 46.9982 90.3889 46.5201Z" fill="#EBEBEB"/>
</svg>
