<svg width="13" height="14" viewBox="0 0 13 14" fill="none" xmlns="http://www.w3.org/2000/svg">
<path d="M1.5 1L1.6819 0.272393C1.28006 0.171932 0.872855 0.416252 0.772393 0.818098L1.5 1ZM1.5 13L0.772393 13.1819C0.872855 13.5837 1.28006 13.8281 1.6819 13.7276L1.5 13ZM11.5 7L12.124 7.41603C12.292 7.1641 12.292 6.8359 12.124 6.58397L11.5 7ZM1.5 13C2.22761 12.8181 2.22765 12.8183 2.22768 12.8184C2.22769 12.8184 2.22773 12.8186 2.22775 12.8187C2.22779 12.8188 2.22782 12.819 2.22785 12.8191C2.2279 12.8193 2.22792 12.8194 2.22791 12.8193C2.22789 12.8192 2.22775 12.8187 2.22749 12.8176C2.22698 12.8155 2.22601 12.8114 2.2246 12.8054C2.22178 12.7934 2.21723 12.7736 2.21119 12.746C2.19911 12.6908 2.18108 12.6044 2.15903 12.4868C2.11494 12.2516 2.0548 11.8917 1.99421 11.407C1.87304 10.4376 1.75 8.96866 1.75 7H0.25C0.25 9.03134 0.376964 10.5624 0.505792 11.593C0.570201 12.1083 0.635062 12.4984 0.684721 12.7632C0.709549 12.8956 0.730575 12.9967 0.745841 13.0665C0.753473 13.1014 0.759665 13.1285 0.764173 13.1477C0.766426 13.1573 0.768258 13.165 0.769639 13.1707C0.770329 13.1735 0.770906 13.1759 0.771366 13.1778C0.771596 13.1787 0.771797 13.1795 0.771969 13.1802C0.772054 13.1805 0.772133 13.1809 0.772203 13.1811C0.772239 13.1813 0.772286 13.1815 0.772304 13.1815C0.772349 13.1817 0.772393 13.1819 1.5 13ZM1.75 7C1.75 5.03134 1.87304 3.56241 1.99421 2.59303C2.0548 2.1083 2.11494 1.74837 2.15903 1.51322C2.18108 1.39564 2.19911 1.30924 2.21119 1.25402C2.21723 1.22641 2.22178 1.2066 2.2246 1.19458C2.22601 1.18857 2.22698 1.18451 2.22749 1.1824C2.22775 1.18134 2.22789 1.18077 2.22791 1.18069C2.22792 1.18065 2.2279 1.18073 2.22785 1.18093C2.22782 1.18103 2.22779 1.18116 2.22775 1.18132C2.22773 1.18141 2.22769 1.18155 2.22768 1.18159C2.22765 1.18174 2.22761 1.1819 1.5 1C0.772393 0.818098 0.772349 0.818273 0.772304 0.818456C0.772286 0.818527 0.772239 0.818717 0.772203 0.818859C0.772133 0.819143 0.772054 0.819458 0.771969 0.819803C0.771797 0.820494 0.771596 0.821306 0.771366 0.822242C0.770906 0.824113 0.770329 0.826473 0.769639 0.829322C0.768258 0.835022 0.766426 0.842679 0.764173 0.852294C0.759665 0.871524 0.753473 0.898585 0.745841 0.933477C0.730575 1.00326 0.709549 1.10436 0.684721 1.23678C0.635062 1.50163 0.570201 1.8917 0.505792 2.40697C0.376964 3.43759 0.25 4.96866 0.25 7H1.75ZM1.5 1C1.3181 1.72761 1.31792 1.72756 1.31774 1.72752C1.3177 1.72751 1.31753 1.72747 1.31744 1.72744C1.31725 1.72739 1.31709 1.72735 1.31696 1.72732C1.3167 1.72726 1.31657 1.72722 1.31655 1.72722C1.31652 1.72721 1.31698 1.72733 1.31792 1.72757C1.3198 1.72806 1.32362 1.72905 1.32936 1.73059C1.34084 1.73366 1.36 1.7389 1.38673 1.74653C1.44019 1.76181 1.52392 1.7867 1.63694 1.82316C1.86296 1.89607 2.20623 2.01527 2.65896 2.19636C3.56433 2.5585 4.90806 3.16842 6.6279 4.15118L7.3721 2.84882C5.59194 1.83158 4.18567 1.1915 3.21604 0.803642C2.73127 0.609734 2.35579 0.478931 2.09744 0.395594C1.96827 0.353926 1.8684 0.32413 1.79881 0.304248C1.76402 0.294307 1.7368 0.286845 1.71727 0.281617C1.70751 0.279003 1.69967 0.276948 1.69377 0.275421C1.69082 0.274657 1.68835 0.274026 1.68638 0.273522C1.68539 0.273271 1.68452 0.273051 1.68377 0.272863C1.6834 0.272769 1.68306 0.272683 1.68275 0.272605C1.68259 0.272565 1.68238 0.272513 1.6823 0.272493C1.6821 0.272442 1.6819 0.272393 1.5 1ZM6.6279 4.15118C8.33436 5.1263 9.41424 5.96972 10.058 6.55496C10.3799 6.84763 10.5932 7.07606 10.7214 7.22459C10.7856 7.29888 10.8286 7.35326 10.8533 7.38578C10.8657 7.40205 10.8735 7.41286 10.8772 7.41798C10.879 7.42054 10.8798 7.42168 10.8796 7.42136C10.8795 7.4212 10.8791 7.42068 10.8785 7.41979C10.8782 7.41935 10.8778 7.41881 10.8774 7.41819C10.8772 7.41787 10.877 7.41753 10.8767 7.41717C10.8766 7.41699 10.8764 7.41671 10.8764 7.41662C10.8762 7.41632 10.876 7.41603 11.5 7C12.124 6.58397 12.1238 6.58366 12.1236 6.58335C12.1235 6.58324 12.1233 6.58291 12.1232 6.58269C12.1229 6.58224 12.1226 6.58176 12.1222 6.58127C12.1216 6.58027 12.1208 6.57919 12.12 6.57802C12.1184 6.57567 12.1166 6.57297 12.1145 6.56991C12.1103 6.5638 12.105 6.55627 12.0987 6.54735C12.0859 6.52952 12.0689 6.50615 12.0471 6.4775C12.0035 6.42018 11.941 6.34175 11.8567 6.24416C11.6881 6.04894 11.4326 5.77737 11.067 5.44504C10.3358 4.78028 9.16564 3.8737 7.3721 2.84882L6.6279 4.15118ZM11.5 7C10.876 6.58397 10.8762 6.58368 10.8764 6.58338C10.8764 6.58329 10.8766 6.58301 10.8767 6.58283C10.877 6.58247 10.8772 6.58213 10.8774 6.58181C10.8778 6.58119 10.8782 6.58065 10.8785 6.58021C10.8791 6.57932 10.8795 6.5788 10.8796 6.57864C10.8798 6.57832 10.879 6.57946 10.8772 6.58202C10.8735 6.58714 10.8657 6.59795 10.8533 6.61422C10.8286 6.64674 10.7856 6.70112 10.7214 6.77541C10.5932 6.92394 10.3799 7.15237 10.058 7.44504C9.41424 8.03028 8.33436 8.8737 6.6279 9.84882L7.3721 11.1512C9.16564 10.1263 10.3358 9.21972 11.067 8.55496C11.4326 8.22263 11.6881 7.95106 11.8567 7.75584C11.941 7.65825 12.0035 7.57982 12.0471 7.5225C12.0689 7.49385 12.0859 7.47048 12.0987 7.45265C12.105 7.44373 12.1103 7.4362 12.1145 7.43009C12.1166 7.42703 12.1184 7.42433 12.12 7.42198C12.1208 7.42081 12.1216 7.41973 12.1222 7.41873C12.1226 7.41824 12.1229 7.41776 12.1232 7.41731C12.1233 7.41709 12.1235 7.41676 12.1236 7.41665C12.1238 7.41634 12.124 7.41603 11.5 7ZM6.6279 9.84882C4.90806 10.8316 3.56433 11.4415 2.65896 11.8036C2.20623 11.9847 1.86296 12.1039 1.63694 12.1768C1.52392 12.2133 1.44019 12.2382 1.38673 12.2535C1.36 12.2611 1.34084 12.2663 1.32936 12.2694C1.32362 12.2709 1.3198 12.2719 1.31792 12.2724C1.31698 12.2727 1.31652 12.2728 1.31655 12.2728C1.31657 12.2728 1.3167 12.2727 1.31696 12.2727C1.31709 12.2726 1.31725 12.2726 1.31744 12.2726C1.31753 12.2725 1.3177 12.2725 1.31774 12.2725C1.31792 12.2724 1.3181 12.2724 1.5 13C1.6819 13.7276 1.6821 13.7276 1.6823 13.7275C1.68238 13.7275 1.68259 13.7274 1.68275 13.7274C1.68306 13.7273 1.6834 13.7272 1.68377 13.7271C1.68452 13.7269 1.68539 13.7267 1.68638 13.7265C1.68835 13.726 1.69082 13.7253 1.69377 13.7246C1.69967 13.7231 1.70751 13.721 1.71727 13.7184C1.7368 13.7132 1.76402 13.7057 1.79881 13.6958C1.8684 13.6759 1.96827 13.6461 2.09744 13.6044C2.35579 13.5211 2.73127 13.3903 3.21604 13.1964C4.18567 12.8085 5.59194 12.1684 7.3721 11.1512L6.6279 9.84882Z" fill="white"/>
</svg>
